<svg id="e68KnlaqbG51" xmlns="http://www.w3.org/2000/svg" xmlns:xlink="http://www.w3.org/1999/xlink" viewBox="0 0 200 200" shape-rendering="geometricPrecision" text-rendering="geometricPrecision"><g transform="translate(-.595848 0.149846)"><g id="e68KnlaqbG53" transform="matrix(.143713 0.010064-.01074 0.153361 25.666754-50.9004)"><path d="M202.9,757c8-2,17.3-3,24.8,1.3c7.1,4.4,10.4,12.5,12.8,20.1c6.9,21.8,5.6,45,4.8,67.6-.6,14.6-1.5,29.3.1,43.9c4.8,41.9,3.2,84.1,5.2,126.1c1.8,49.1,13.5,97.2,27.7,144c5.8,18.8,11.4,37.7,18.4,56.1c7.2,19.1,15.1,38.1,19.5,58c.7,3.5,2.5,6.6,3.7,9.9c3.3,8.6,4.9,17.8,5.3,27c.1,5.4-2.3,11.1-.5,16.4c6.8,6,17.3,5.7,24,11.9.9,1.1,2.2,2.2,2,3.8-.8,1.1-1.8,2-2.8,2.9-6.6-2.9-13.3-5.7-19.6-9.2-3.9-2.4-7.7-5.9-8.7-10.5c3.6-6.3,2.7-13.9,1.8-20.8-3.4-22.1-13.8-42.2-20.5-63.3-12.6-39.4-23.5-79.2-36.2-118.6-2.6-8-5.6-15.9-8.5-23.8-1.3-3.2-.9-6.7-1.4-10.1-2.2-13.2-2.8-26.6-5.1-39.8-4-20.4-4-41.2-4.3-61.9-.3-8.3.5-16.6-.1-24.9-1.3-18-1-36.1-2.1-54.1-1.6-18.7-.2-37.4-.2-56.1.1-20.4.3-41-3.6-61.2-1.8-8.3-4-17.2-10.2-23.3-.9-1-1.9-1.9-3-2.7-2-.7-4-1.2-6.1-1.5-1.6,0-3.3,0-4.9,0-1.7,0-3.4.1-5.1.2s-3.4.1-5,.3c-2,.3-4.1.3-5.9,1.4-2.4,3.6-2.4,8.1-3,12.2-5.7.5-11.4,1.5-17,.6-5.4-.4-11.2-1.4-16.4.6-2.4.9-2.7,3.7-3.1,5.9-.8,7.6.3,15.3.3,22.9-2.2-6.6-4.2-13.2-6.7-19.7-1.6-4.6-5.4-8.3-10.2-9.3-12.8-2.9-26.3,2.2-36,10.6-3.4,3-4,7.7-2.7,11.9c4.3,16.8,14.8,31,21,47c4.5,11.1,9.4,22,14.1,33c3,7.2,6.5,14.3,8.6,21.8-22.2-30.8-44.4-62.5-56.2-99-6.3,6.1-12.8,12-19.1,18.2-3.5,3.4-6.4,7.5-9.1,11.6-3.5-4-7-8.5-12.1-10.6-2.3-1-4.7.4-6.7,1.4-1.3,1-2.6,2.2-3.8,3.4-2.3,2.3-4.4,4.6-6.4,7.1-1.1,1.3-2.1,2.6-3.2,4-1.3,1.8-2.6,3.5-4,5.3-1.1,1.5-2.2,3.1-3.3,4.7-.8,1.1-1.6,2.3-2.4,3.5-.9,1.4-1.9,2.9-2.8,4.3-.4.6-1.2,1.9-1.6,2.6-.8,1.2-1.6,2.4-2.3,3.7-.9,1.8-2.8,4.2-.7,6C32.7,894,56.1,913.9,78,935c15.1,14.4,29.4,29.8,41.6,46.8c9.4,12.3,18.9,24.6,27.8,37.3c14.8,20.8,29.3,41.9,42.9,63.5c3.6,5.6,7.1,11.3,10.9,16.8c6.8,20.4,12.5,41.2,18.8,61.7c5.6,19.4,12,38.7,17.8,58.1c10,35.3,15,72.2,30.2,105.9c2.7,6.7,8.6,11.8,15.5,13.9.9.3,1.8.5,2.7.8l.1.9c.5,5.5.7,11.3-1,16.6-2.7,4-7.5,5.7-10.9,9.1c3.4.4,7.1,1,10.4-.4c2.8-1.2,4.6-3.7,6.5-5.8.6,4.6,1.2,9.2,2,13.8-.4.5-1,1.5-1.4,2.1-1.9-3-2.1-6.9-4.7-9.3-3.7,0-5.8,4.5-9.7,4.7-2,.1-5.2,1.3-6-1.3c1.8-4.1,5.3-7.2,7.2-11.3c2.5-4.7,3.6-10.6.9-15.4-2.2-5.2-7.6-7.8-11.1-12-10.5-12-16.2-27.3-20.5-42.4-4.1-14.4-6.4-29.3-9-44-3.7-17.9-9.2-35.4-14.3-52.9-7.4-24.9-15.4-49.6-22.4-74.7-1.3-3.7-1.2-7.9-3.7-11.1-33.7-46.4-59.8-98.2-96.9-142.2-20.8-24.9-47.5-43.7-70-66.8-7.4-7.6-16.7-13.8-21.7-23.5-4.1-7.7-2.5-17.3,2.2-24.4c6.7-10,14.8-19.1,24.1-26.8c4.8-3.7,10.2-7.7,16.5-7.8c5.3,2.1,8,7.8,11.5,12.1c8.7-9.3,16.9-19,26.4-27.5c6.1,3,8.5,9.7,10.7,15.6c2.6,7.8,6.4,15,10,22.4c4.2,8.5,8.8,17.1,15.8,23.6-8.9-16.2-18-32.3-24.9-49.4-2.4-6.4-5.2-13.2-4-20.2c1-5.6,5.3-10.2,10.5-12.3c8.8-3.9,18.6-2.6,27.9-2.7c7.4,0,14.6,2.9,20.3,7.6c1.6-3.5,4.2-6.6,7.9-8c8.5-3.5,17.8-2.1,26.7-1.1c1.8-6.9,3.9-15.4,11.3-18Z" fill="#000100" stroke="#000100" stroke-width="0.394"/><path d="M199,766.1c1.8-1.1,3.9-1.1,5.9-1.4.2,15.9,2.7,31.7,3.6,47.6c2.5,28.2,4.5,56.4,3.7,84.7-.3,11.7-2.8,23.3-1.8,35c.9-8,2-16,3.5-24c2.3-13.2,2.7-26.7,2.5-40.1.2-24.5-1.9-48.9-3.8-73.3-1-10.1-1.3-20.2-2.6-30.3c1.7-.1,3.4-.1,5.1-.2.7,11,3.6,21.7,4.8,32.7c2.6,18.3,4.2,36.7,5.7,55.1.4,11.7.3,23.4-1.1,35.1-1,14.9-3.8,29.8-3.1,44.9c1.7-15.8,5.1-31.3,6.8-47c3.8-24.9,1.6-50.2-1.4-75-1.4-15.3-4.3-30.5-6.9-45.7c2.1.4,4.1.9,6.1,1.5c0,7,2.9,13.4,4.1,20.2c4.9,25,6.2,50.5,5.6,76c.2,31.7-1.3,63.6,2.9,95.1.2-19.3-.4-38.7.7-58.1c1.3-24.3,1.7-48.6,1.2-73-1-13.7-2.4-27.4-5-40.9-1.1-5.9-3.9-11.3-6.5-16.6c6.2,6.2,8.4,15,10.2,23.3c3.8,20.1,3.7,40.7,3.6,61.2c0,18.7-1.4,37.4.2,56.1c1.2,18,.9,36.1,2.1,54.1-1.8,3.5-3.1,7.3-3.4,11.2-1.3,11.5-.1,23.1-.1,34.7.1,14.1,0,28.3,1.1,42.4-3.2-2.9-4.1-7.2-5.9-10.9-.8-2.3-1.7-4.7-2.5-7-3.1-15.1-5.6-30.4-5.8-45.8-4,14.3-1,29.4,2.2,43.5.8,4.4,1.7,8.8,2.4,13.2-.5,5.3-.4,10.7.6,16-.9-.5-1.8-.9-2.7-1.3v1c-1.1-3-2.3-6-3.7-8.9-1.9-6.3-3.4-12.7-4.5-19.2-1.6-9.5-2.4-19.2-5.4-28.4.4,12.3,2,24.4,3.2,36.6.4,3.7.8,7.4,1,11.2-.5,4.4-.6,8.8-.2,13.2-1-.5-1.9-1-2.9-1.5-1-4-2-8-3.1-12-1.2-6.5-1.9-13-3-19.4-1.6,9.8-.9,19.7.1,29.6.2,8.5.8,17.1-.2,25.6-.7,6.4-2.8,12.6-5.3,18.5-.3.7-.6,1.3-.9,2-1.1-2.1-2.3-4.1-3-6.3c1.2-1.9,2.7-3.8,2.6-6.1.2-16.7,1.8-33.3,1.6-50-.1-3.9,0-7.9.3-11.8.5-6.5-.8-12.8-1.7-19.2-2.9-19.6-8.4-39-7.6-59c.5-19.7,2.5-39.3,3.4-59c1-20.6,1.4-41.3.2-62-2-18.2-5.8-36.2-5.9-54.6-8.4.1-16.8.3-25.2-.8c3.7,20.2,10,40,12.4,60.4c3.3,25.5,3.9,51.3,5.1,77c.1,20.8,1.6,41.7-.3,62.4-.3-.3-.8-1.1-1.1-1.4-1.7-18,0-36.3-4-54-6.4-29.8-11.1-59.9-14.5-90.1-.3,10.8-.2,21.6,1.2,32.4c1.4,20.4,4.7,40.7,8.6,60.7c2.7,14.2,2,28.7,2.4,43.1-2.8-3.8-7-7.1-7.6-12.1-3.6-20.7-6.3-41.5-8.6-62.3-1.9-17.9-4.6-35.7-4.6-53.7-.1-10.9.2-21.9,0-32.8c0-7.6-1-15.3-.3-22.9.3-2.2.6-5,3.1-5.9c5.2-2,11-1,16.4-.6c5.7.9,11.4-.1,17-.6.6-4,.7-8.5,3-12.1Z" fill="#539a34" stroke="#539a34" stroke-width="0.394"/><path d="M106.9,789.9c9.7-8.4,23.2-13.5,36-10.6c4.8,1,8.6,4.7,10.2,9.3-.2.6-.5,1.9-.7,2.6-1.5-8-10.4-13.2-18.1-10.7c1.3,6.5,2.8,12.9,5,19.2c3.7,10.3,6.6,20.9,9.6,31.5c1.2,4.8,2.3,9.6,4.1,14.3l.1.5c-.1.6-.3,1.9-.4,2.5-4.3-6.7-7.5-14.1-10.7-21.4-4.9-12-8.5-25-17-35.1.8,4.3,2.1,8.5,3.3,12.7c3.7,12.7,6.9,25.6,10.3,38.5c1.7,6.4,3.6,12.8,4.3,19.4-4.2-6.9-5.7-15-9.4-22.1-4.6-11.1-10.2-21.7-15.4-32.5-3.3-6.3-6.6-12.7-11.2-18.1Z" fill="#539a34" stroke="#539a34" stroke-width="0.394"/><path d="M72.6,822.7c6.3-6.2,12.8-12.1,19.1-18.2c11.9,36.4,34,68.2,56.2,99c5,9.6,8,20.1,11.6,30.4c1.9,5.7,4.2,11.3,5.5,17.2-10.3-11.6-19.1-24.3-28.4-36.7-11.9-16.4-24-32.6-35.5-49.2-10-13.9-18.9-28.4-28.5-42.5Z" fill="#539a34" stroke="#539a34" stroke-width="0.394"/><path d="M134.3,780.4c7.7-2.5,16.6,2.7,18.1,10.7-3.9,17.9-.2,36.2.6,54.2-1.7-4.7-2.9-9.5-4.1-14.3-2.9-10.6-5.9-21.1-9.6-31.5-2.2-6.2-3.6-12.6-5-19.1Z" fill="#2f8a0f" stroke="#2f8a0f" stroke-width="0.394"/><path d="M104.2,801.8c-1.3-4.2-.7-8.9,2.7-11.9c4.6,5.4,7.8,11.8,11.2,18c5.2,10.8,10.8,21.4,15.4,32.5c3.8,7.1,5.3,15.2,9.4,22.1-.8-6.6-2.6-13-4.3-19.4-3.4-12.8-6.6-25.7-10.3-38.5-1.3-4.2-2.6-8.4-3.3-12.7c8.5,10.1,12.1,23.1,17,35.1c3.3,7.3,6.4,14.7,10.7,21.4.1-.6.3-1.9.4-2.5c3.3,21,5.8,42.2,9.8,63.1c1,5.3,3,10.6,2.1,16-1.1,3.4-4.5,5.4-5.5,8.9-3.5-10.2-6.6-20.7-11.6-30.4-2.2-7.6-5.6-14.6-8.6-21.8-4.7-11-9.5-21.9-14.1-33-6.2-16-16.7-30.2-21-46.9Z" fill="#2f8a0f" stroke="#2f8a0f" stroke-width="0.394"/><path d="M204.9,764.7c1.7-.1,3.4-.2,5-.3c1.3,10,1.6,20.2,2.6,30.3c1.9,24.4,4,48.8,3.8,73.3.2,13.4-.2,26.9-2.5,40.1-1.4,8-2.6,15.9-3.5,24-.9-11.7,1.6-23.3,1.8-35c.8-28.3-1.2-56.6-3.7-84.7-.8-16-3.3-31.8-3.5-47.7Z" fill="#318911" stroke="#318911" stroke-width="0.394"/><path d="M215,764.3c1.6-.1,3.3-.1,4.9,0c2.5,15.2,5.4,30.3,6.9,45.7c2.9,24.8,5.2,50.1,1.4,75-1.7,15.8-5.2,31.3-6.8,47-.7-15,2-29.9,3.1-44.9c1.5-11.6,1.5-23.4,1.1-35.1-1.5-18.4-3.2-36.8-5.7-55.1-1.2-10.9-4.1-21.6-4.9-32.6Z" fill="#308910" stroke="#308910" stroke-width="0.394"/><path d="M169.6,865.4c-1.3-10.7-1.5-21.6-1.2-32.4c3.4,30.2,8.1,60.3,14.5,90.1c4,17.7,2.3,36,4,54-2.1-2.6-4.2-5.2-6.3-7.8-.5-14.4.3-28.9-2.4-43.1-3.9-20.2-7.2-40.4-8.6-60.8Z" fill="#308910" stroke="#308910" stroke-width="0.394"/><path d="M226,765.8c1.1.8,2.1,1.7,3,2.7c2.7,5.3,5.5,10.7,6.5,16.6c2.6,13.5,4.1,27.2,5,40.9.5,24.3.1,48.7-1.2,73-1.1,19.3-.5,38.7-.7,58.1-4.2-31.5-2.8-63.4-2.9-95.1.6-25.4-.8-51-5.6-76-1.2-6.8-4.1-13.2-4.1-20.2Z" fill="#308911" stroke="#308911" stroke-width="0.394"/><path d="M170.8,778.6c8.4,1.1,16.8.9,25.2.8.1,18.4,3.9,36.4,5.9,54.6c1.2,20.6.7,41.3-.2,62-.9,19.7-2.9,39.3-3.4,59-.8,20,4.8,39.4,7.6,59c.9,6.4,2.1,12.7,1.7,19.2-.3-.1-.9-.4-1.1-.6-9.6-11.2-16.9-24-24.4-36.6-8-13.8-16.1-27.5-25.5-40.4-22.2-31.1-48.8-58.8-70.9-90-7-10.6-13.8-21.4-21.9-31.3c2.7-4.1,5.5-8.2,9.1-11.6c9.5,14.1,18.5,28.6,28.5,42.3c11.5,16.6,23.6,32.9,35.5,49.2c9.3,12.4,18.1,25.2,28.4,36.7-1.3-5.9-3.6-11.5-5.5-17.2c1-3.5,4.5-5.5,5.5-8.9.9-5.4-1.1-10.7-2.1-16-4.1-20.9-6.6-42.1-9.8-63.1l-.1-.5c-.8-18-4.6-36.3-.6-54.2.2-.6.5-1.9.7-2.6c2.5,6.5,4.5,13.1,6.7,19.7.2,10.9,0,21.9,0,32.8c0,18,2.7,35.8,4.6,53.7c2.4,20.9,5,41.7,8.6,62.3.6,5,4.8,8.3,7.6,12.1c2.1,2.6,4.1,5.3,6.3,7.8.3.4.8,1.1,1.1,1.4c1.9-20.8.4-41.6.3-62.4-1.2-25.7-1.8-51.5-5.1-77-2.7-20.2-9-40-12.7-60.2Z" fill="#136812" stroke="#136812" stroke-width="0.394"/><path d="M44.8,825.1c2-1,4.4-2.4,6.7-1.4c5,2.1,8.6,6.6,12.1,10.6c8.1,9.8,14.9,20.7,21.9,31.3c22.2,31.2,48.7,58.9,70.9,90c9.4,12.9,17.5,26.6,25.5,40.4c7.5,12.6,14.8,25.4,24.4,36.6-1.3,2.6-2.3,5.3-3.1,8-16.7-19.5-27.7-43.1-43.1-63.6c5.3,16.8,14.8,31.9,24,46.8c3.9,6.5,8.4,12.6,11.7,19.4-8.5-6.4-14.3-15.5-22.1-22.7c8.1,13.5,17.6,26.6,21.8,42-8.8-8.8-15.3-19.6-22.5-29.7c3.1,10.8,11.1,19.2,15.3,29.5-5.9-4.7-10.4-10.8-15.2-16.6-8.2-9.3-15.6-19.3-23.2-29-5.4-6.9-10.7-13.8-16.4-20.4-4.4-5.1-8.6-10.5-13.9-14.7-12.2-17-26.4-32.4-41.6-46.8-21.9-21.1-45.3-41-63.7-65.4-2.1-1.8-.1-4.2.7-6c5.6,8.3,13.4,14.9,20.2,22.1c5.1,5.6,11.1,10.3,16.2,16c4.1,4.5,9.1,8.1,13.4,12.5c12.1,12.3,25.2,23.4,36.6,36.3c17,17.6,32.6,36.7,45.7,57.4c4.8,6.6,9.1,13.6,14.1,20.1-1.1-5.5-5.3-9.6-7.9-14.4-6-10.5-12.9-20.4-19.3-30.6-12.4-17.7-27.1-33.5-41.8-49.2-8.7-9.3-18.7-17.2-27-26.9c7,4.2,12.9,9.8,19.4,14.5c11.9,10,24.2,19.8,35,31c11.3,11.1,19.9,24.6,31.5,35.5-6.5-9.7-13.7-18.9-21.1-27.9-4-5.8-9.4-10.4-13.1-16.4c5.5,3.8,10.1,8.8,14.8,13.5c4.4,4.4,7.7,9.8,12.4,13.9-2.2-4.3-5.2-8.2-8.2-11.9-13.2-16.8-29.8-30.4-45.8-44.3-12.5-10.5-24.2-21.8-35.2-33.9C44.8,869.4,36,857,27.5,844.5c1.3-1.8,2.6-3.5,4-5.3c6.8,10.9,14.4,21.4,22.9,31.1c18.5,21.5,40.5,39.5,61.1,58.9c6.2,5.1,11.5,11.1,17,16.9c5.8,6.3,11.6,12.6,16.8,19.4c3.3,4.1,5.9,8.8,9.8,12.5-2.5-6.8-7.2-12.3-11.2-18.3-9.9-13-20.6-25.4-32.6-36.4-23.1-23.2-48.9-44.1-68.2-70.8-4.4-5.6-7.5-12.2-12.4-17.3c2-2.5,4.2-4.9,6.4-7.1c6.3,12.2,13,24.2,20.9,35.5c4.8,8,11.1,15,17.7,21.4c11.6,12.1,25.3,22,37.5,33.5c2.9,2.8,5.8,5.6,9,8.1-5.6-8.2-13-15.1-20.3-21.8-12-12.3-25.4-23.5-35.3-37.7C61,854,53,839.5,44.8,825.1Z" fill="#539a33" stroke="#539a33" stroke-width="0.394"/><path d="M41,828.5c1.2-1.2,2.5-2.3,3.8-3.4C53,839.5,61,854,70.6,867.4c9.9,14.2,23.3,25.4,35.3,37.7c7.3,6.7,14.7,13.6,20.3,21.8-3.2-2.5-6.1-5.3-9-8.1-12.2-11.5-25.8-21.4-37.5-33.5-6.7-6.5-12.9-13.5-17.7-21.4-8-11.2-14.6-23.2-21-35.4Z" fill="#318811" stroke="#318811" stroke-width="0.394"/><path d="M31.4,839.5c1-1.3,2.1-2.7,3.2-4c4.9,5.2,8,11.7,12.4,17.3c19.4,26.7,45.1,47.6,68.2,70.8c12,11.1,22.7,23.5,32.6,36.4c4,5.9,8.7,11.5,11.2,18.3-3.9-3.7-6.4-8.4-9.8-12.5-5.1-6.9-10.9-13.2-16.8-19.4-5.5-5.8-10.9-11.8-17-16.9-20.6-19.4-42.6-37.4-61.1-58.9-8.5-9.6-16.1-20.1-22.9-31.1Z" fill="#308811" stroke="#308811" stroke-width="0.394"/><path d="M24.2,849.5c1.1-1.6,2.2-3.1,3.3-4.7C36,857.3,44.8,869.7,54.9,881c11,12.1,22.7,23.4,35.2,33.9c16,13.9,32.7,27.5,45.8,44.3c3.1,3.7,6,7.5,8.2,11.9-4.7-4.1-8-9.5-12.4-13.9-4.8-4.7-9.3-9.7-14.8-13.5c3.7,6,9.1,10.6,13.1,16.4c7.4,9,14.6,18.2,21.1,27.9-11.6-10.8-20.2-24.4-31.5-35.5-10.8-11.3-23-21-35-31-6.6-4.7-12.5-10.4-19.4-14.5c8.3,9.7,18.3,17.6,27,26.9c14.8,15.7,29.5,31.5,41.8,49.2c6.5,10.2,13.3,20.2,19.3,30.6c2.6,4.8,6.8,8.8,7.9,14.4-5-6.5-9.3-13.5-14.1-20.1-13.1-20.7-28.7-39.8-45.7-57.4-11.4-12.9-24.6-24.1-36.6-36.3-4.2-4.4-9.3-8-13.4-12.5-5-5.7-11-10.4-16.2-16-6.8-7.3-14.6-13.8-20.2-22.1.7-1.3,1.5-2.5,2.3-3.7c3.9,3.8,7.5,8,12,11.2-3.1-4.9-7.4-8.8-10.4-13.8.9-1.5,1.9-2.9,2.8-4.3c11.7,14.3,22.2,30,37.1,41.2-3.3-5-7.6-9.1-11.4-13.7-8.1-10.1-16.3-20.1-23.2-31.1Z" fill="#30890f" stroke="#30890f" stroke-width="0.394"/><path d="M24.2,849.5c6.9,10.9,15.1,21,23.3,31c3.8,4.6,8.1,8.7,11.4,13.7C44,883,33.5,867.3,21.8,853c.8-1.2,1.6-2.3,2.4-3.5Z" fill="#519f35" stroke="#519f35" stroke-width="0.394"/><path d="M17.3,859.9c.4-.6,1.2-1.9,1.6-2.6c3,5,7.3,8.9,10.4,13.8-4.4-3.2-8-7.4-12-11.2Z" fill="#429325" stroke="#429325" stroke-width="0.394"/><path d="M241.7,974.4c.4-3.9,1.6-7.7,3.4-11.2.5,8.3-.2,16.6.1,24.9.3,20.7.3,41.5,4.3,61.9c2.3,13.2,2.9,26.6,5.1,39.8c0,2.9-.4,5.9-1,8.7-4.5,2.5-9.2,4.8-14.3,5.7-10.7,2.1-21.6,1.9-32.5,1.4c2.4-5.9,4.6-12.1,5.3-18.5c1-8.5.4-17.1.2-25.6.3-4.5.7-8.9.9-13.4.7,1.1,1.4,2.2,2.1,3.3c1,4,2,8,3.1,12c1.8,6.9,3.8,13.8,6.1,20.6-.8-10.8-1.6-21.6-3-32.3-.2-3.7-.6-7.5-1-11.2.7-1.1,1.4-2.1,2.1-3.2-.1,5.1,1.4,10.1,4.7,14.1c1.4,2.9,2.6,5.8,3.7,8.9c1,3.2,2.6,6.3,4.4,9.1.6-8.3-.4-16.7-2.3-24.8-.7-4.4-1.7-8.8-2.4-13.2.2-2.1.5-4.1.7-6.2.4,3,1.3,5.9,2.9,8.5.9,2.3,1.7,4.7,2.5,7c2.4,9.9,4.9,19.8,8,29.5-.3-6.3-1.5-12.4-2.1-18.6-1.1-14.1-1-28.3-1.1-42.4-.1-11.7-1.2-23.3.1-34.8Z" fill="#b6fc22" stroke="#b6fc22" stroke-width="0.394"/><path d="M160.2,977c15.3,20.5,26.3,44.1,43.1,63.6-2.4,10.3-2.6,20.9-1.7,31.4.4,5.7,1.8,11.4,1.2,17.2-.1,3.4-.1,7-1.6,10.2-3.8-5.5-7.3-11.2-10.9-16.8-13.7-21.6-28.1-42.7-42.9-63.5.8-.8,1.7-1.5,2.5-2.3c7.6,9.7,15,19.7,23.2,29c4.8,5.8,9.3,11.9,15.2,16.6-4.2-10.3-12.2-18.7-15.3-29.5c7.1,10.1,13.6,20.9,22.5,29.7-4.2-15.4-13.7-28.5-21.8-42c7.8,7.1,13.6,16.3,22.1,22.7-3.2-6.8-7.8-12.9-11.7-19.4-9.2-15-18.6-30.1-23.9-46.9Z" fill="#b5fc24" stroke="#b5fc24" stroke-width="0.394"/><path d="M119.6,981.8c5.3,4.2,9.5,9.6,13.9,14.7c5.7,6.6,11.1,13.5,16.4,20.4-.8.7-1.7,1.5-2.5,2.3-8.9-12.7-18.4-25-27.8-37.4Z" fill="#baf930" stroke="#baf930" stroke-width="0.394"/><path d="M228.4,987.8c.2,15.5,2.8,30.7,5.8,45.8-1.5-2.6-2.5-5.5-2.9-8.5-.2,2.1-.5,4.1-.7,6.2-3.2-14.1-6.2-29.1-2.2-43.5Z" fill="#b3fc31" stroke="#b3fc31" stroke-width="0.394"/><path d="M217.3,1003.8c3,9.2,3.8,18.9,5.4,28.4c1.1,6.5,2.7,12.9,4.5,19.2-3.3-4-4.8-9-4.7-14.1-.7,1-1.4,2.1-2.1,3.2-1.1-12.3-2.7-24.4-3.1-36.7Z" fill="#b3fb30" stroke="#b3fb30" stroke-width="0.394"/><path d="M212.4,1031.8c1.1,6.5,1.8,13,3,19.4-.7-1.1-1.4-2.2-2.1-3.3-.2,4.5-.6,8.9-.9,13.4-.9-9.7-1.6-19.7,0-29.5Z" fill="#affa3e" stroke="#affa3e" stroke-width="0.394"/><path d="M206.4,1032.6c.3.2.8.4,1.1.6-.3,3.9-.4,7.9-.3,11.8.1,16.7-1.4,33.3-1.6,50c.1,2.3-1.4,4.3-2.6,6.1-.6-4-.2-8-.3-11.9.6-5.8-.8-11.5-1.2-17.2-.9-10.5-.7-21.1,1.7-31.4.8-2.8,1.9-5.4,3.2-8Z" fill="#2f8a0c" stroke="#2f8a0c" stroke-width="0.394"/><path d="M236.8,1040.6c1.8,3.7,2.7,8,5.9,10.9.6,6.2,1.8,12.4,2.1,18.6-3.2-9.7-5.6-19.6-8-29.5Z" fill="#6ab017" stroke="#6ab017" stroke-width="0.394"/><path d="M233.1,1044.6c1.9,8.1,2.9,16.5,2.3,24.8-1.8-2.9-3.4-5.9-4.4-9.1v-1c.9.4,1.8.8,2.7,1.3-1.1-5.3-1.1-10.7-.6-16Z" fill="#589b21" stroke="#589b21" stroke-width="0.394"/><path d="M221.5,1051.6c1.4,10.7,2.3,21.5,3,32.3-2.3-6.8-4.3-13.7-6.1-20.6c1,.5,1.9,1,2.9,1.5-.4-4.4-.3-8.8.2-13.2Z" fill="#579d1f" stroke="#579d1f" stroke-width="0.394"/><path d="M201.2,1099.4c1.5-3.2,1.4-6.8,1.6-10.2.1,4-.3,8,.3,11.9.7,2.2,1.9,4.3,3,6.3.3-.7.6-1.3.9-2c10.8.5,21.8.7,32.5-1.4c6,8.3,10.4,17.5,15,26.5c5.6,10.7,9.6,22.1,13.8,33.3c7.9,20.2,13.6,41.2,19.9,62c2.7,7.6,4.6,15.4,6.9,23.2c3.3,12.8,8.7,24.9,10.9,38c2.1,9.7,2.5,19.7,1.5,29.6-.5,3.5-1.1,7.3-3.6,9.9-1.2-1.2-2-2.7-2.3-4.4-2.3-10.6-1.8-21.7-4.4-32.2-1.9-10-4.8-19.7-7.9-29.3-3.6-9.3-6.3-19-10-28.2-4.2-12.1-9.2-23.9-12.6-36.3-4.3-13.4-4.3-28-9.9-41.1-1.2-4.6-4.1-8.4-7.9-11.2-.8,11.4,1.6,22.7,4.2,33.7c2,9.9,5.2,19.5,8,29.2c4.6,12.2,7.5,25,12.7,37c4.7,14.5,10.8,29.3,9.6,44.8-7.5-7.9-9-19.3-12.2-29.2-5.2-15.1-9.3-30.5-14.4-45.5-3.6-12.2-7.6-24.3-10.3-36.8-2.9-9.8-4-20.1-7.2-29.8-1.5-5.9-3.6-11.7-7.1-16.7-1,2.7-1.9,5.4-1.6,8.3.5,12.4,6.2,23.6,8.5,35.7c2.2,11.4,3.9,23,6.5,34.4c2.2,8.6,3.1,17.5,6.1,25.9c3.8,12.3,8.8,24.2,13.6,36.2c3.2,10.1,7.8,19.6,10.4,29.9c2.2,8.2,5.2,16.4,5.8,25c.3,4.4.9,8.7,1.7,13-6.9-2.1-12.8-7.2-15.5-13.9-15.2-33.7-20.2-70.6-30.2-105.9-5.8-19.4-12.1-38.6-17.8-58.1-6-20.4-11.7-41.2-18.5-61.6m7.7,7.7c.3,3,.6,5.9,1.3,8.8c5.4,25.9,13.9,51,21.9,76.2c5.4,17,13.1,33.3,15.9,51c4.3,22.2,7.3,45.3,18.5,65.3c2.1,3.8,3.9,8,7.6,10.4c1.6-2.7,1.9-5.8,1-8.8-3.2-11.8-7.5-23.2-11.4-34.7-6.1-18.2-12.2-36.4-18.2-54.6-6.7-21.6-13.8-43.3-17.1-65.8-1.9-13.7-3.2-27.5-5.6-41.1-.4-2.2-.8-4.6-2-6.5-3.9-1-8-.3-11.9-.2Z" fill="#d9d9b7" stroke="#d9d9b7" stroke-width="0.394"/><path d="M254.7,1089.7c.5,3.4.2,6.9,1.4,10.1c3,7.9,5.9,15.8,8.5,23.8c12.6,39.3,23.5,79.2,36.2,118.6c6.8,21.1,17.1,41.2,20.5,63.3.9,6.9,1.8,14.5-1.8,20.8-.4.8-.9,1.6-1.3,2.4-7.3,9.7-20.4,13.3-32,11.1-.9-.3-1.8-.5-2.7-.8-.7-4.3-1.4-8.7-1.7-13-.6-8.6-3.5-16.8-5.8-25-2.7-10.2-7.3-19.8-10.4-29.9-4.7-12-9.8-23.8-13.6-36.2-3-8.4-3.9-17.3-6.1-25.9-2.5-11.4-4.2-23-6.5-34.4-2.3-12-8-23.3-8.5-35.7-.3-2.9.7-5.6,1.6-8.3c3.5,5,5.6,10.8,7.1,16.7c3.2,9.7,4.3,20,7.2,29.8c2.6,12.5,6.6,24.6,10.3,36.8c5.1,15.1,9.2,30.5,14.4,45.5c3.2,10,4.8,21.3,12.2,29.2c1.2-15.6-4.9-30.3-9.6-44.8-5.2-12-8.1-24.8-12.7-37-2.8-9.7-6-19.3-8-29.2-2.6-11-5-22.3-4.2-33.7c3.8,2.8,6.7,6.6,7.9,11.2c5.6,13.1,5.5,27.6,9.9,41.1c3.4,12.3,8.4,24.2,12.6,36.3c3.7,9.3,6.4,18.9,10,28.2c3.1,9.6,6,19.3,7.9,29.3c2.6,10.6,2.1,21.6,4.4,32.2.3,1.6,1,3.2,2.3,4.4c2.5-2.7,3-6.5,3.6-9.9c1-9.9.5-19.9-1.5-29.6-2.2-13.1-7.6-25.2-10.9-38-2.4-7.7-4.2-15.6-6.9-23.2-6.4-20.7-12.1-41.7-19.9-62-4.2-11.3-8.2-22.7-13.8-33.3-4.7-9-9.1-18.2-15-26.5c5.1-.8,9.8-3.2,14.3-5.7.2-2.8.6-5.8.6-8.7Z" fill="#d0cea7" stroke="#d0cea7" stroke-width="0.394"/><path d="M208.9,1107.1c3.9,0,8-.8,11.8.3c1.2,1.9,1.6,4.3,2,6.5c2.4,13.6,3.7,27.4,5.6,41.1c3.3,22.5,10.4,44.1,17.1,65.8c6,18.2,12.1,36.4,18.2,54.6c3.9,11.5,8.3,22.9,11.4,34.7.9,2.9.6,6.1-1,8.8-3.8-2.5-5.5-6.7-7.6-10.4-11.2-20-14.2-43.1-18.5-65.3-2.9-17.7-10.5-34-15.9-51-8-25.2-16.5-50.3-21.9-76.2-.6-3-.9-6-1.2-8.9Z" fill="#f3f1cb" stroke="#f3f1cb" stroke-width="0.394"/><path d="M318.1,1328.7c.5-.8.9-1.6,1.3-2.4c1,4.6,4.8,8.1,8.7,10.5c6.3,3.6,13,6.3,19.6,9.2-.5,0-1,.2-1.5.2-7.2-.3-14.7.5-21.5-2.7.6,2,1.3,4,1.9,6.1-3,1.1-6.3,1.3-9.4,1.6c1.9,1.3,3.9,2.5,5.8,3.9-3.8,1-7.5.2-11.1-1c1.3,2.6,2.4,5.4,4.6,7.4c1.9,1.6,4.3,2.6,6.5,3.7-5.7,2.9-12.2,1.3-17.2-2.2c1.8,3,4.4,5.9,4.8,9.6-.4.3-1.1.8-1.5,1.1-5.6-2.5-9-7.9-12.5-12.7-.2,2.7-.5,5.5-1.2,8.2-.6,1.6-1.3,3.2-2.1,4.8-.8-4.6-1.4-9.2-2-13.8-2,2.2-3.8,4.7-6.5,5.8-3.3,1.4-7,.9-10.4.4c3.3-3.4,8.2-5.1,10.9-9.1c1.7-5.3,1.4-11.1,1-16.6.7,3.1,2,6,3.3,8.9.6-2,1.1-4,1.7-6c1.7,2.6,3.5,5.2,5.3,7.7.3-.9.8-2.6,1.1-3.4c3.2,2.8,6.6,5.4,10.4,7.2-2-3.4-4.1-6.8-6.1-10.3c4.9,2.2,10,4.4,15.6,4.2-2.9-2.8-6-5.4-9.1-8c4.3.5,8.6.9,12.8-.2-2.5-1.2-5-2.4-7.5-3.6c3.6-1.5,7.5-.6,11,.5-2.5-2.7-4.7-5.8-6.7-9Z" fill="#dec167" stroke="#dec167" stroke-width="0.394"/><path d="M286.1,1339.8c11.6,2.3,24.8-1.3,32-11.1c2,3.2,4.2,6.2,6.6,9.1-3.6-1.1-7.4-2-11-.5c2.5,1.2,5,2.4,7.5,3.6-4.2,1.1-8.6.7-12.8.2c3.1,2.6,6.2,5.2,9.1,8-5.5.2-10.6-2-15.6-4.2c2,3.5,4.1,6.8,6.1,10.3-3.9-1.8-7.3-4.4-10.4-7.2-.3.8-.8,2.5-1.1,3.4-1.8-2.6-3.5-5.1-5.3-7.7-.5,2-1.1,4-1.7,6-1.3-2.9-2.6-5.8-3.3-8.9l-.1-1Z" fill="#b19848" stroke="#b19848" stroke-width="0.394"/><path d="M324.8,1343.6c6.8,3.1,14.3,2.4,21.5,2.7-7.2,4-16,5.2-22.2,10.9-2.6,2.9,1.4,5.5,3.6,6.9-4.2,3.8-10.3,5.8-12.7,11.2-7.2,2.2-14.6-.7-19.5-6c.7-2.7,1-5.4,1.2-8.2c3.5,4.7,6.9,10.1,12.5,12.7.4-.3,1.1-.8,1.5-1.1-.5-3.6-3-6.5-4.8-9.6c5,3.5,11.5,5.1,17.2,2.2-2.2-1.2-4.6-2.1-6.5-3.7-2.1-2.1-3.3-4.9-4.6-7.4c3.6,1.2,7.4,2,11.1,1-1.9-1.3-3.8-2.6-5.8-3.9c3.2-.3,6.4-.4,9.4-1.6-.6-2.1-1.2-4.1-1.9-6.1Z" fill="#020100" stroke="#020100" stroke-width="0.394"/></g><g id="e68KnlaqbG537" transform="matrix(0-.179091 0.160997 0 81.932594 143.857315)"><path d="M287.52,335.749l-28.837,6.581c-15.68,3.579-30.828-4.264-33.835-17.517v0c-3.007-13.252,7.266-26.897,22.945-30.475l28.837-6.581c15.68-3.579,39.959,1.828,42.966,15.081v0c3.007,13.251-16.396,29.332-32.076,32.911Z" fill="#e4a937"/><path d="M305.126,318.202l-28.837,6.581c-15.68,3.579-30.829-4.264-33.835-17.517v0c-.88-3.878-.615-7.788.581-11.47-12.933,4.995-20.877,17.159-18.186,29.017c3.007,13.252,18.156,21.095,33.835,17.517l28.837-6.581c11.844-2.703,25.805-12.539,30.634-22.902-4.272,2.496-8.786,4.386-13.029,5.355Z" fill="#e6cfa8"/><path d="M215.422,121.172l-6.853,27.379c-3.726,14.888,3.396,29.513,15.909,32.669v0c12.513,3.155,25.676-6.356,29.403-21.243l6.854-27.379c3.726-14.888-.891-38.175-13.404-41.33v0c-12.513-3.156-28.182,15.016-31.909,29.904Z" fill="#e4a937"/><path d="M245.425,160.272v0c-12.513-3.156-19.635-17.781-15.909-32.669l6.854-27.379c.693-2.768,1.799-5.649,3.22-8.485-10.545,3.498-21.184,17.512-24.168,29.433l-6.853,27.379c-3.726,14.888,3.396,29.513,15.909,32.669v0c12.34,3.112,25.308-6.101,29.237-20.637-2.723.463-5.522.387-8.29-.311Z" fill="#e6cfa8"/><path d="M327.153,32.883l-5.632,22.5c-3.063,12.234,2.791,24.253,13.073,26.846v0c10.282,2.592,21.1-5.222,24.162-17.456l5.632-22.5c3.063-12.234-.732-31.371-11.014-33.963v0c-10.282-2.594-23.158,12.339-26.221,24.573Z" fill="#e4a937"/><path d="M353.603,55.999v0c-10.282-2.592-16.135-14.612-13.073-26.846l4.975-19.876c-8.15,3.622-16.042,14.379-18.352,23.605l-5.632,22.5c-3.063,12.234,2.791,24.253,13.073,26.846v0c10.282,2.592,21.1-5.222,24.162-17.456l2.159-8.625c-2.394.48-4.867.469-7.312-.148Z" fill="#e6cfa8"/><path d="M364,326.933l-20.512,13.826c-11.153,7.518-15.084,21.223-8.779,30.612v0c6.305,9.389,20.458,10.907,31.611,3.389l20.512-13.826c11.153-7.518,21.792-25.399,15.487-34.789v0c-6.305-9.388-27.166-6.729-38.319.788Z" fill="#e4a937"/><path d="M385.721,350.572c-11.153,7.518-25.306,6.001-31.611-3.389-2.321-3.457-3.244-7.499-2.941-11.602l-7.682,5.177c-11.153,7.518-15.084,21.223-8.779,30.612s20.458,10.907,31.611,3.389l20.512-13.826c7.132-4.808,14.048-13.853,16.462-22.206l-17.572,11.845Z" fill="#e6cfa8"/><path d="M403.711,201.984l-24.707,6.953c-13.433,3.78-26.894-2.358-30.064-13.71v0c-3.17-11.352,5.149-23.619,18.583-27.399l24.707-6.953c13.433-3.78,34.701-.148,37.871,11.203v0c3.17,11.352-12.957,26.126-26.39,29.906Z" fill="#e4a937"/><path d="M419.519,185.815l-24.706,6.953c-13.433,3.78-26.894-2.358-30.064-13.71-.964-3.452-.86-6.989.122-10.347-11.852,4.555-18.888,15.932-15.932,26.515v0c3.17,11.352,16.631,17.49,30.064,13.71l24.706-6.953c9.837-2.768,21.109-11.431,25.2-20.328-3.094,1.847-6.312,3.294-9.39,4.16Z" fill="#e6cfa8"/><path d="M73.053,255.072l-.309,30.036c-.168,16.332,10.822,29.686,24.546,29.828v0c13.724.142,24.986-12.982,25.154-29.314l.309-30.036c.168-16.332-10.376-39.271-24.1-39.414v0c-13.725-.14-25.433,22.569-25.6,38.9Z" fill="#e4a937"/><path d="M117.747,284.108v0c-13.724-.142-24.714-13.496-24.546-29.828l.309-30.036c.024-2.342.293-4.816.763-7.334-11.747,3.985-21.071,23.601-21.221,38.162l-.309,30.036c-.168,16.332,10.822,29.686,24.546,29.828s24.986-12.982,25.154-29.314l.021-2.003c-1.53.333-3.105.505-4.717.489Z" fill="#e6cfa8"/><g><path d="M97.748,388.042c-4.465,0-8.084-3.618-8.084-8.084v-92.904c0-4.465,3.618-8.084,8.084-8.084s8.084,3.618,8.084,8.084v92.904c0,4.465-3.618,8.084-8.084,8.084Z" fill="#7c9e2f"/><path d="M154.378,346.367c-3.733,0-7.089-2.602-7.898-6.401-.931-4.368,1.855-8.661,6.221-9.591c2.411-.514,80.151-17.36,100.869-20.601c4.417-.7,8.546,2.326,9.237,6.737.69,4.411-2.326,8.546-6.738,9.237-20.284,3.172-99.412,20.315-99.997,20.439-.568.121-1.136.18-1.694.18Z" fill="#7c9e2f"/><path d="M213.467,261.721c-.25,0-.503-.012-.755-.035-4.445-.412-7.716-4.35-7.303-8.795.195-2.118,7.882-73.135,15.903-94.579c1.564-4.181,6.221-6.305,10.404-4.739c4.181,1.564,6.303,6.222,4.739,10.404-7.266,19.428-14.901,89.907-14.947,90.406-.389,4.192-3.912,7.338-8.041,7.338Z" fill="#7c9e2f"/><path d="M316.912,159.434c-.566,0-1.14-.06-1.715-.184-4.365-.942-7.138-5.244-6.196-9.609.52-2.41,16.62-75.251,23.114-93.193c1.519-4.196,6.15-6.375,10.353-4.849c4.198,1.519,6.37,6.154,4.849,10.353-6.126,16.926-22.387,90.523-22.512,91.103-.818,3.788-4.169,6.379-7.893,6.379Z" fill="#7c9e2f"/><path d="M277.306,219.921c-3.789,0-7.169-2.675-7.926-6.532-.858-4.382,1.999-8.63,6.38-9.488.484-.095,65.482-13.212,91.654-22.488c4.215-1.489,8.828.713,10.322,4.919c1.491,4.209-.712,8.829-4.919,10.322-27.302,9.676-91.926,22.719-93.95,23.115-.524.103-1.045.152-1.561.152Z" fill="#7c9e2f"/><path d="M282.942,420.162c-2.453,0-4.875-1.112-6.465-3.222-2.685-3.567-1.971-8.636,1.597-11.321l70.345-52.87c3.568-2.685,8.635-1.97,11.321,1.597c2.685,3.567,1.971,8.636-1.597,11.321l-70.345,52.87c-1.457,1.096-3.164,1.625-4.856,1.625Z" fill="#7c9e2f"/><path d="M271.244,470.503c-.713,0-1.436-.095-2.156-.294l-82.065-22.658c-4.304-1.188-6.829-5.641-5.641-9.944c1.188-4.304,5.644-6.831,9.944-5.641l82.065,22.658c4.304,1.188,6.829,5.641,5.641,9.944-.989,3.585-4.243,5.935-7.788,5.935Z" fill="#7c9e2f"/><path d="M440.864,444.633c-.665,0-1.339-.084-2.012-.256l-90.575-23.529c-4.325-1.109-6.933-5.514-5.823-9.838c1.109-4.324,5.51-6.934,9.838-5.823l90.575,23.529c4.325,1.109,6.933,5.514,5.823,9.838-.937,3.652-4.223,6.079-7.826,6.079Z" fill="#7c9e2f"/></g><path d="M497.944,403.229v.28c-.162,5.379-4.7,9.033-10.068,9.291-66.592,3.222-123.182,8.547-171.709,15.133-165.91,22.518-237.6,59.769-292.562,78.438-1.876.636-3.804.949-5.702.949-5.702,0-11.21-2.749-14.648-7.6-6.963-9.82-2.166-22.668,8.839-27.496c23.52-10.315,46.986-19.348,70.182-27.249c188.826-64.34,360.351-53.82,406.603-51.319c5.099.282,9.065,4.486,9.065,9.573Z" fill="#a9cf54"/><path d="M316.168,427.935c-165.91,22.518-237.6,59.769-292.562,78.438-1.876.636-3.804.949-5.702.949-5.702,0-11.21-2.749-14.648-7.6-6.963-9.82-2.166-22.668,8.839-27.496c23.52-10.315,46.986-19.348,70.182-27.249c11.286,6.574,26.689,9.539,47.611,4.419c49.42-12.094,118.556-22.42,186.28-21.461Z" fill="#92b83d"/><path d="M512,12.261C512,5.49,506.51,0,499.739,0c-2.408,0-4.649.704-6.543,1.905v0c-.001,0-.001,0-.001,0-.231.146-.455.3-.674.461C192.668,206.284,8.105,475.296,8.105,475.296l.014.016C3.195,479.04,0,484.931,0,491.582C0,502.858,9.142,512,20.418,512c5.578,0,10.628-2.242,14.313-5.867l.003.003c.004-.005.008-.011.013-.017c1.467-1.445,2.714-3.11,3.692-4.942C267.008,195.605,505.174,23.242,505.174,23.242l-.001-.001c4.041-2.006,6.827-6.162,6.827-10.98Z" fill="#a9cf54"/><path d="M16.202,495.253l-.014-.016c0,0,190.835-291.566,484.023-495.214-.156-.005-.312-.023-.472-.023-2.408,0-4.649.704-6.543,1.905-.001,0-.001,0-.001,0-.231.146-.455.3-.674.461C192.668,206.284,8.105,475.296,8.105,475.296l.014.016C3.195,479.04,0,484.931,0,491.582c0,6.771,3.309,12.754,8.384,16.469.898-5.207,3.772-9.734,7.818-12.798Z" fill="#92b83d"/></g></g>
<script><![CDATA[
!function(t,n){"object"==typeof exports&&"undefined"!=typeof module?module.exports=n():"function"==typeof __SVGATOR_DEFINE__&&__SVGATOR_DEFINE__.amd?__SVGATOR_DEFINE__(n):((t="undefined"!=typeof globalThis?globalThis:t||self).__SVGATOR_PLAYER__=t.__SVGATOR_PLAYER__||{},t.__SVGATOR_PLAYER__["5c7f360c"]=n())}(this,(function(){"use strict";function t(t,n){var e=Object.keys(t);if(Object.getOwnPropertySymbols){var r=Object.getOwnPropertySymbols(t);n&&(r=r.filter((function(n){return Object.getOwnPropertyDescriptor(t,n).enumerable}))),e.push.apply(e,r)}return e}function n(n){for(var e=1;e<arguments.length;e++){var r=null!=arguments[e]?arguments[e]:{};e%2?t(Object(r),!0).forEach((function(t){o(n,t,r[t])})):Object.getOwnPropertyDescriptors?Object.defineProperties(n,Object.getOwnPropertyDescriptors(r)):t(Object(r)).forEach((function(t){Object.defineProperty(n,t,Object.getOwnPropertyDescriptor(r,t))}))}return n}function e(t){return(e="function"==typeof Symbol&&"symbol"==typeof Symbol.iterator?function(t){return typeof t}:function(t){return t&&"function"==typeof Symbol&&t.constructor===Symbol&&t!==Symbol.prototype?"symbol":typeof t})(t)}function r(t,n){if(!(t instanceof n))throw new TypeError("Cannot call a class as a function")}function i(t,n){for(var e=0;e<n.length;e++){var r=n[e];r.enumerable=r.enumerable||!1,r.configurable=!0,"value"in r&&(r.writable=!0),Object.defineProperty(t,r.key,r)}}function u(t,n,e){return n&&i(t.prototype,n),e&&i(t,e),t}function o(t,n,e){return n in t?Object.defineProperty(t,n,{value:e,enumerable:!0,configurable:!0,writable:!0}):t[n]=e,t}function a(t){return(a=Object.setPrototypeOf?Object.getPrototypeOf:function(t){return t.__proto__||Object.getPrototypeOf(t)})(t)}function l(t,n){return(l=Object.setPrototypeOf||function(t,n){return t.__proto__=n,t})(t,n)}function s(){if("undefined"==typeof Reflect||!Reflect.construct)return!1;if(Reflect.construct.sham)return!1;if("function"==typeof Proxy)return!0;try{return Boolean.prototype.valueOf.call(Reflect.construct(Boolean,[],(function(){}))),!0}catch(t){return!1}}function f(t,n,e){return(f=s()?Reflect.construct:function(t,n,e){var r=[null];r.push.apply(r,n);var i=new(Function.bind.apply(t,r));return e&&l(i,e.prototype),i}).apply(null,arguments)}function c(t,n){if(n&&("object"==typeof n||"function"==typeof n))return n;if(void 0!==n)throw new TypeError("Derived constructors may only return object or undefined");return function(t){if(void 0===t)throw new ReferenceError("this hasn't been initialised - super() hasn't been called");return t}(t)}function h(t,n,e){return(h="undefined"!=typeof Reflect&&Reflect.get?Reflect.get:function(t,n,e){var r=function(t,n){for(;!Object.prototype.hasOwnProperty.call(t,n)&&null!==(t=a(t)););return t}(t,n);if(r){var i=Object.getOwnPropertyDescriptor(r,n);return i.get?i.get.call(e):i.value}})(t,n,e||t)}function v(t){return function(t){if(Array.isArray(t))return y(t)}(t)||function(t){if("undefined"!=typeof Symbol&&null!=t[Symbol.iterator]||null!=t["@@iterator"])return Array.from(t)}(t)||function(t,n){if(!t)return;if("string"==typeof t)return y(t,n);var e=Object.prototype.toString.call(t).slice(8,-1);"Object"===e&&t.constructor&&(e=t.constructor.name);if("Map"===e||"Set"===e)return Array.from(t);if("Arguments"===e||/^(?:Ui|I)nt(?:8|16|32)(?:Clamped)?Array$/.test(e))return y(t,n)}(t)||function(){throw new TypeError("Invalid attempt to spread non-iterable instance.\nIn order to be iterable, non-array objects must have a [Symbol.iterator]() method.")}()}function y(t,n){(null==n||n>t.length)&&(n=t.length);for(var e=0,r=new Array(n);e<n;e++)r[e]=t[e];return r}function g(t,n,e){if(Number.isInteger(t))return t;var r=Math.pow(10,n);return Math[e]((+t+Number.EPSILON)*r)/r}Number.isInteger||(Number.isInteger=function(t){return"number"==typeof t&&isFinite(t)&&Math.floor(t)===t}),Number.EPSILON||(Number.EPSILON=2220446049250313e-31);var p=d(Math.pow(10,-6));function d(t){var n=arguments.length>1&&void 0!==arguments[1]?arguments[1]:6;return g(t,n,"round")}function m(t,n){var e=arguments.length>2&&void 0!==arguments[2]?arguments[2]:p;return Math.abs(t-n)<e}d(Math.pow(10,-2)),d(Math.pow(10,-4));var b=Math.PI/180;function w(t){return t*b}function x(t){return t/b}function _(t){return t}function A(t,n,e){var r=1-e;return 3*e*r*(t*r+n*e)+e*e*e}function k(){var t=arguments.length>0&&void 0!==arguments[0]?arguments[0]:0,n=arguments.length>1&&void 0!==arguments[1]?arguments[1]:0,e=arguments.length>2&&void 0!==arguments[2]?arguments[2]:1,r=arguments.length>3&&void 0!==arguments[3]?arguments[3]:1;return t<0||t>1||e<0||e>1?null:m(t,n)&&m(e,r)?_:function(i){if(i<=0)return t>0?i*n/t:0===n&&e>0?i*r/e:0;if(i>=1)return e<1?1+(i-1)*(r-1)/(e-1):1===e&&t<1?1+(i-1)*(n-1)/(t-1):1;for(var u,o=0,a=1;o<a;){var l=A(t,e,u=(o+a)/2);if(m(i,l))break;l<i?o=u:a=u}return A(n,r,u)}}function S(){return 1}function O(t){return 1===t?1:0}function j(){var t=arguments.length>0&&void 0!==arguments[0]?arguments[0]:1,n=arguments.length>1&&void 0!==arguments[1]?arguments[1]:0;if(1===t){if(0===n)return O;if(1===n)return S}var e=1/t;return function(t){return t>=1?1:(t+=n*e)-t%e}}var M=Math.sin,E=Math.cos,P=Math.acos,I=Math.asin,R=Math.tan,F=Math.atan2,N=Math.sqrt,T=function(){function t(){var n=arguments.length>0&&void 0!==arguments[0]?arguments[0]:1,e=arguments.length>1&&void 0!==arguments[1]?arguments[1]:0,i=arguments.length>2&&void 0!==arguments[2]?arguments[2]:0,u=arguments.length>3&&void 0!==arguments[3]?arguments[3]:1,o=arguments.length>4&&void 0!==arguments[4]?arguments[4]:0,a=arguments.length>5&&void 0!==arguments[5]?arguments[5]:0;r(this,t),this.m=[n,e,i,u,o,a],this.i=null,this.w=null,this.s=null}return u(t,[{key:"determinant",get:function(){var t=this.m;return t[0]*t[3]-t[1]*t[2]}},{key:"isIdentity",get:function(){if(null===this.i){var t=this.m;this.i=1===t[0]&&0===t[1]&&0===t[2]&&1===t[3]&&0===t[4]&&0===t[5]}return this.i}},{key:"point",value:function(t,n){var e=this.m;return{x:e[0]*t+e[2]*n+e[4],y:e[1]*t+e[3]*n+e[5]}}},{key:"translateSelf",value:function(){var t=arguments.length>0&&void 0!==arguments[0]?arguments[0]:0,n=arguments.length>1&&void 0!==arguments[1]?arguments[1]:0;if(!t&&!n)return this;var e=this.m;return e[4]+=e[0]*t+e[2]*n,e[5]+=e[1]*t+e[3]*n,this.w=this.s=this.i=null,this}},{key:"rotateSelf",value:function(){var t=arguments.length>0&&void 0!==arguments[0]?arguments[0]:0;if(t%=360){t=w(t);var n=M(t),e=E(t),r=this.m,i=r[0],u=r[1];r[0]=i*e+r[2]*n,r[1]=u*e+r[3]*n,r[2]=r[2]*e-i*n,r[3]=r[3]*e-u*n,this.w=this.s=this.i=null}return this}},{key:"scaleSelf",value:function(){var t=arguments.length>0&&void 0!==arguments[0]?arguments[0]:1,n=arguments.length>1&&void 0!==arguments[1]?arguments[1]:1;if(1!==t||1!==n){var e=this.m;e[0]*=t,e[1]*=t,e[2]*=n,e[3]*=n,this.w=this.s=this.i=null}return this}},{key:"skewSelf",value:function(t,n){if(n%=360,(t%=360)||n){var e=this.m,r=e[0],i=e[1],u=e[2],o=e[3];t&&(t=R(w(t)),e[2]+=r*t,e[3]+=i*t),n&&(n=R(w(n)),e[0]+=u*n,e[1]+=o*n),this.w=this.s=this.i=null}return this}},{key:"resetSelf",value:function(){var t=arguments.length>0&&void 0!==arguments[0]?arguments[0]:1,n=arguments.length>1&&void 0!==arguments[1]?arguments[1]:0,e=arguments.length>2&&void 0!==arguments[2]?arguments[2]:0,r=arguments.length>3&&void 0!==arguments[3]?arguments[3]:1,i=arguments.length>4&&void 0!==arguments[4]?arguments[4]:0,u=arguments.length>5&&void 0!==arguments[5]?arguments[5]:0,o=this.m;return o[0]=t,o[1]=n,o[2]=e,o[3]=r,o[4]=i,o[5]=u,this.w=this.s=this.i=null,this}},{key:"recomposeSelf",value:function(){var t=arguments.length>0&&void 0!==arguments[0]?arguments[0]:null,n=arguments.length>1&&void 0!==arguments[1]?arguments[1]:null,e=arguments.length>2&&void 0!==arguments[2]?arguments[2]:null,r=arguments.length>3&&void 0!==arguments[3]?arguments[3]:null,i=arguments.length>4&&void 0!==arguments[4]?arguments[4]:null;return this.isIdentity||this.resetSelf(),t&&(t.x||t.y)&&this.translateSelf(t.x,t.y),n&&this.rotateSelf(n),e&&(e.x&&this.skewSelf(e.x,0),e.y&&this.skewSelf(0,e.y)),!r||1===r.x&&1===r.y||this.scaleSelf(r.x,r.y),i&&(i.x||i.y)&&this.translateSelf(i.x,i.y),this}},{key:"decompose",value:function(){var t=arguments.length>0&&void 0!==arguments[0]?arguments[0]:0,n=arguments.length>1&&void 0!==arguments[1]?arguments[1]:0,e=this.m,r=e[0]*e[0]+e[1]*e[1],i=[[e[0],e[1]],[e[2],e[3]]],u=N(r);if(0===u)return{origin:{x:d(e[4]),y:d(e[5])},translate:{x:d(t),y:d(n)},scale:{x:0,y:0},skew:{x:0,y:0},rotate:0};i[0][0]/=u,i[0][1]/=u;var o=e[0]*e[3]-e[1]*e[2]<0;o&&(u=-u);var a=i[0][0]*i[1][0]+i[0][1]*i[1][1];i[1][0]-=i[0][0]*a,i[1][1]-=i[0][1]*a;var l,s=N(i[1][0]*i[1][0]+i[1][1]*i[1][1]);return 0===s?{origin:{x:d(e[4]),y:d(e[5])},translate:{x:d(t),y:d(n)},scale:{x:d(u),y:0},skew:{x:0,y:0},rotate:0}:(i[1][0]/=s,i[1][1]/=s,a/=s,i[1][1]<0?(l=x(P(i[1][1])),i[0][1]<0&&(l=360-l)):l=x(I(i[0][1])),o&&(l=-l),a=x(F(a,N(i[0][0]*i[0][0]+i[0][1]*i[0][1]))),o&&(a=-a),{origin:{x:d(e[4]),y:d(e[5])},translate:{x:d(t),y:d(n)},scale:{x:d(u),y:d(s)},skew:{x:d(a),y:0},rotate:d(l)})}},{key:"multiply",value:function(t){return this.clone().multiplySelf(t)}},{key:"preMultiply",value:function(t){return t.multiply(this)}},{key:"multiplySelf",value:function(t){var n=q(this.m,t.m),e=n.a,r=n.b,i=n.c,u=n.d,o=n.tx,a=n.ty;return this.resetSelf(e,r,i,u,o,a),this}},{key:"preMultiplySelf",value:function(t){var n=q(t.m,this.m),e=n.a,r=n.b,i=n.c,u=n.d,o=n.tx,a=n.ty;return this.resetSelf(e,r,i,u,o,a),this}},{key:"clone",value:function(){var t=this.m;return new this.constructor(t[0],t[1],t[2],t[3],t[4],t[5])}},{key:"toString",value:function(){var t=arguments.length>0&&void 0!==arguments[0]?arguments[0]:" ";if(null===this.s){var n=this.m.map((function(t){return d(t)}));1===n[0]&&0===n[1]&&0===n[2]&&1===n[3]?this.s="translate("+n[4]+t+n[5]+")":this.s="matrix("+n.join(t)+")"}return this.s}}],[{key:"create",value:function(t){return t?Array.isArray(t)?f(this,v(t)):t instanceof this?t.clone():(new this).recomposeSelf(t.origin,t.rotate,t.skew,t.scale,t.translate):new this}}]),t}();function q(t,n){return{a:t[0]*n[0]+t[2]*n[1],b:t[1]*n[0]+t[3]*n[1],c:t[0]*n[2]+t[2]*n[3],d:t[1]*n[2]+t[3]*n[3],tx:t[0]*n[4]+t[2]*n[5]+t[4],ty:t[1]*n[4]+t[3]*n[5]+t[5]}}function B(t,n,e){return t>=.5?e:n}function D(t,n,e){return 0===t||n===e?n:t*(e-n)+n}function L(t,n,e){var r=D(t,n,e);return r<=0?0:r}function C(t,n,e){var r=D(t,n,e);return r<=0?0:r>=1?1:r}function V(t,n,e){return 0===t?n:1===t?e:{x:D(t,n.x,e.x),y:D(t,n.y,e.y)}}function G(t,n,e){var r=function(t,n,e){return Math.round(D(t,n,e))}(t,n,e);return r<=0?0:r>=255?255:r}function z(t,n,e){return 0===t?n:1===t?e:{r:G(t,n.r,e.r),g:G(t,n.g,e.g),b:G(t,n.b,e.b),a:D(t,null==n.a?1:n.a,null==e.a?1:e.a)}}function Y(t,n){for(var e=[],r=0;r<t;r++)e.push(n);return e}function $(t,n){if(--n<=0)return t;var e=(t=Object.assign([],t)).length;do{for(var r=0;r<e;r++)t.push(t[r])}while(--n>0);return t}var U,Q=function(){function t(n){r(this,t),this.list=n,this.length=n.length}return u(t,[{key:"setAttribute",value:function(t,n){for(var e=this.list,r=0;r<this.length;r++)e[r].setAttribute(t,n)}},{key:"removeAttribute",value:function(t){for(var n=this.list,e=0;e<this.length;e++)n[e].removeAttribute(t)}},{key:"style",value:function(t,n){for(var e=this.list,r=0;r<this.length;r++)e[r].style[t]=n}}]),t}(),H=/-./g,J=function(t,n){return n.toUpperCase()};function Z(t){return"function"==typeof t?t:B}function K(t){return t?"function"==typeof t?t:Array.isArray(t)?function(t){var n=arguments.length>1&&void 0!==arguments[1]?arguments[1]:_;if(!Array.isArray(t))return n;switch(t.length){case 1:return j(t[0])||n;case 2:return j(t[0],t[1])||n;case 4:return k(t[0],t[1],t[2],t[3])||n}return n}(t,null):function(t,n){var e=arguments.length>2&&void 0!==arguments[2]?arguments[2]:_;switch(t){case"linear":return _;case"steps":return j(n.steps||1,n.jump||0)||e;case"bezier":case"cubic-bezier":return k(n.x1||0,n.y1||0,n.x2||0,n.y2||0)||e}return e}(t.type,t.value,null):null}function W(t,n,e){var r=arguments.length>3&&void 0!==arguments[3]&&arguments[3],i=n.length-1;if(t<=n[0].t)return r?[0,0,n[0].v]:n[0].v;if(t>=n[i].t)return r?[i,1,n[i].v]:n[i].v;var u,o=n[0],a=null;for(u=1;u<=i;u++){if(!(t>n[u].t)){a=n[u];break}o=n[u]}return null==a?r?[i,1,n[i].v]:n[i].v:o.t===a.t?r?[u,1,a.v]:a.v:(t=(t-o.t)/(a.t-o.t),o.e&&(t=o.e(t)),r?[u,t,e(t,o.v,a.v)]:e(t,o.v,a.v))}function X(t,n){var e=arguments.length>2&&void 0!==arguments[2]?arguments[2]:null;return t&&t.length?"function"!=typeof n?null:("function"!=typeof e&&(e=null),function(r){var i=W(r,t,n);return null!=i&&e&&(i=e(i)),i}):null}function tt(t,n){return t.t-n.t}function nt(t,n,r,i,u){var o,a="@"===r[0],l="#"===r[0],s=U[r],f=B;switch(a?(o=r.substr(1),r=o.replace(H,J)):l&&(r=r.substr(1)),e(s)){case"function":if(f=s(i,u,W,K,r,a,n,t),l)return f;break;case"string":f=X(i,Z(s));break;case"object":if((f=X(i,Z(s.i),s.f))&&"function"==typeof s.u)return s.u(n,f,r,a,t)}return f?function(t,n,e){if(arguments.length>3&&void 0!==arguments[3]&&arguments[3])return t instanceof Q?function(r){return t.style(n,e(r))}:function(r){return t.style[n]=e(r)};if(Array.isArray(n)){var r=n.length;return function(i){var u=e(i);if(null==u)for(var o=0;o<r;o++)t[o].removeAttribute(n);else for(var a=0;a<r;a++)t[a].setAttribute(n,u)}}return function(r){var i=e(r);null==i?t.removeAttribute(n):t.setAttribute(n,i)}}(n,r,f,a):null}function et(t,n,r,i){if(!i||"object"!==e(i))return null;var u=null,o=null;return Array.isArray(i)?o=function(t){if(!t||!t.length)return null;for(var n=0;n<t.length;n++)t[n].e&&(t[n].e=K(t[n].e));return t.sort(tt)}(i):(o=i.keys,u=i.data||null),o?nt(t,n,r,o,u):null}function rt(t,n,e){if(!e)return null;var r=[];for(var i in e)if(e.hasOwnProperty(i)){var u=et(t,n,i,e[i]);u&&r.push(u)}return r.length?r:null}function it(t,n){if(!n.settings.duration||n.settings.duration<0)return null;var e,r,i,u,o,a=function(t,n){if(!n)return null;var e=[];if(Array.isArray(n))for(var r=n.length,i=0;i<r;i++){var u=n[i];if(2===u.length){var o=null;if("string"==typeof u[0])o=t.getElementById(u[0]);else if(Array.isArray(u[0])){o=[];for(var a=0;a<u[0].length;a++)if("string"==typeof u[0][a]){var l=t.getElementById(u[0][a]);l&&o.push(l)}o=o.length?1===o.length?o[0]:new Q(o):null}if(o){var s=rt(t,o,u[1]);s&&(e=e.concat(s))}}}else for(var f in n)if(n.hasOwnProperty(f)){var c=t.getElementById(f);if(c){var h=rt(t,c,n[f]);h&&(e=e.concat(h))}}return e.length?e:null}(t,n.elements);return a?(e=a,r=n.settings,i=r.duration,u=e.length,o=null,function(t,n){var a=r.iterations||1/0,l=(r.alternate&&a%2==0)^r.direction>0?i:0,s=t%i,f=1+(t-s)/i;n*=r.direction,r.alternate&&f%2==0&&(n=-n);var c=!1;if(f>a)s=l,c=!0,-1===r.fill&&(s=r.direction>0?0:i);else if(n<0&&(s=i-s),s===o)return!1;o=s;for(var h=0;h<u;h++)e[h](s);return c}):null}function ut(t,n){for(var e=n.querySelectorAll("svg"),r=0;r<e.length;r++)if(e[r].id===t.root&&!e[r].svgatorAnimation)return e[r].svgatorAnimation=!0,e[r];return null}function ot(t){var n=function(t){return t.shadowRoot};return document?Array.from(t.querySelectorAll(":not("+["a","area","audio","br","canvas","circle","datalist","embed","g","head","hr","iframe","img","input","link","object","path","polygon","rect","script","source","style","svg","title","track","video"].join()+")")).filter(n).map(n):[]}function at(t){var n=arguments.length>1&&void 0!==arguments[1]?arguments[1]:document,e=arguments.length>2&&void 0!==arguments[2]?arguments[2]:0,r=ut(t,n);if(r)return r;if(e>=20)return null;for(var i=ot(n),u=0;u<i.length;u++){var o=at(t,i[u],e+1);if(o)return o}return null}function lt(t,n){if(U=n,!t||!t.root||!Array.isArray(t.animations))return null;var e=at(t);if(!e)return null;var r=t.animations.map((function(t){return it(e,t)})).filter((function(t){return!!t}));return r.length?{svg:e,animations:r,animationSettings:t.animationSettings,options:t.options||void 0}:null}function st(t){var n=arguments.length>1&&void 0!==arguments[1]?arguments[1]:null,e=arguments.length>2&&void 0!==arguments[2]?arguments[2]:Number,r=arguments.length>3&&void 0!==arguments[3]?arguments[3]:"undefined"!=typeof BigInt&&BigInt,i="0x"+(t.replace(/[^0-9a-fA-F]+/g,"")||27);return n&&r&&e.isSafeInteger&&!e.isSafeInteger(+i)?e(r(i))%n+n:+i}function ft(t,n,e){return!t||!e||n>t.length?t:t.substring(0,n)+ft(t.substring(n+1),e,e)}function ct(t){var n=arguments.length>1&&void 0!==arguments[1]?arguments[1]:27;return!t||t%n?t%n:[0,1].includes(n)?n:ct(t/n,n)}function ht(t,n,e){if(t&&t.length){var r=st(e),i=ct(r)+5,u=ft(t,ct(r,5),i);return u=u.replace(/\x7c$/g,"==").replace(/\x2f$/g,"="),u=function(t,n,e){var r=+("0x"+t.substring(0,4));t=t.substring(4);for(var i=st(n,r)%r+e%27,u=[],o=0;o<t.length;o+=2)if("|"!==t[o]){var a=+("0x"+t[o]+t[o+1])-i;u.push(a)}else{var l=+("0x"+t.substring(o+1,o+1+4))-i;o+=3,u.push(l)}return String.fromCharCode.apply(String,u)}(u=(u=atob(u)).replace(/[\x41-\x5A]/g,""),n,r),u=JSON.parse(u)}}var vt=[{key:"alternate",def:!1},{key:"fill",def:1},{key:"iterations",def:0},{key:"direction",def:1},{key:"speed",def:1},{key:"fps",def:100}],yt=function(){function t(n,e){var i=this,u=arguments.length>2&&void 0!==arguments[2]?arguments[2]:null;r(this,t),this._id=0,this._running=!1,this._rollingBack=!1,this._animations=n,this._settings=e,(!u||u<"2022-05-02")&&delete this._settings.speed,vt.forEach((function(t){i._settings[t.key]=i._settings[t.key]||t.def})),this.duration=e.duration,this.offset=e.offset||0,this.rollbackStartOffset=0}return u(t,[{key:"alternate",get:function(){return this._settings.alternate}},{key:"fill",get:function(){return this._settings.fill}},{key:"iterations",get:function(){return this._settings.iterations}},{key:"direction",get:function(){return this._settings.direction}},{key:"speed",get:function(){return this._settings.speed}},{key:"fps",get:function(){return this._settings.fps}},{key:"maxFiniteDuration",get:function(){return this.iterations>0?this.iterations*this.duration:this.duration}},{key:"_apply",value:function(t){for(var n=arguments.length>1&&void 0!==arguments[1]?arguments[1]:{},e=this._animations,r=e.length,i=0,u=0;u<r;u++)n[u]?i++:(n[u]=e[u](t,1),n[u]&&i++);return i}},{key:"_rollback",value:function(t){var n=this,e=1/0,r=null;this.rollbackStartOffset=t,this._rollingBack=!0,this._running=!0;this._id=window.requestAnimationFrame((function i(u){if(n._rollingBack){null==r&&(r=u);var o=Math.round(t-(u-r)*n.speed);if(o>n.duration&&e!==1/0){var a=!!n.alternate&&o/n.duration%2>1,l=o%n.duration;o=(l+=a?n.duration:0)||n.duration}var s=(n.fps?1e3/n.fps:0)*n.speed,f=Math.max(0,o);f<=e-s&&(n.offset=f,e=f,n._apply(f));var c=n.iterations>0&&-1===n.fill&&o>=n.maxFiniteDuration;(o<=0||n.offset<o||c)&&n.stop(),n._id=window.requestAnimationFrame(i)}}))}},{key:"_start",value:function(){var t=this,n=arguments.length>0&&void 0!==arguments[0]?arguments[0]:0,e=-1/0,r=null,i={};this._running=!0;var u=function u(o){null==r&&(r=o);var a=Math.round((o-r)*t.speed+n),l=(t.fps?1e3/t.fps:0)*t.speed;if(a>=e+l&&!t._rollingBack&&(t.offset=a,e=a,t._apply(a,i)===t._animations.length))return void t.pause(!0);t._id=window.requestAnimationFrame(u)};this._id=window.requestAnimationFrame(u)}},{key:"_pause",value:function(){this._id&&window.cancelAnimationFrame(this._id),this._running=!1}},{key:"play",value:function(){if(!this._running)return this._rollingBack?this._rollback(this.offset):this._start(this.offset)}},{key:"stop",value:function(){this._pause(),this.offset=0,this.rollbackStartOffset=0,this._rollingBack=!1,this._apply(0)}},{key:"reachedToEnd",value:function(){return this.iterations>0&&this.offset>=this.iterations*this.duration}},{key:"restart",value:function(){var t=arguments.length>0&&void 0!==arguments[0]&&arguments[0];this.stop(t),this.play(t)}},{key:"pause",value:function(){this._pause()}},{key:"reverse",value:function(){this.direction=-this.direction}}],[{key:"build",value:function(t,n){delete t.animationSettings,t.options=ht(t.options,t.root,"5c7f360c"),t.animations.map((function(n){n.settings=ht(n.s,t.root,"5c7f360c"),delete n.s,t.animationSettings||(t.animationSettings=n.settings)}));var e=t.version;if(!(t=lt(t,n)))return null;var r=t.options||{},i=new this(t.animations,t.animationSettings,e);return{el:t.svg,options:r,player:i}}},{key:"push",value:function(t){return this.build(t)}},{key:"init",value:function(){var t=this,n=window.__SVGATOR_PLAYER__&&window.__SVGATOR_PLAYER__["5c7f360c"];Array.isArray(n)&&n.splice(0).forEach((function(n){return t.build(n)}))}}]),t}();function gt(t){return d(t)+""}function pt(t){var n=arguments.length>1&&void 0!==arguments[1]?arguments[1]:" ";return t&&t.length?t.map(gt).join(n):""}function dt(t){return t?null==t.a||t.a>=1?function(t){if(!t)return"transparent";var n=function(t){return parseInt(t).toString(16).padStart(2,"0")};return function(t){for(var n=[],e="#"===t[0]?n.push("#"):0;e<t.length;e+=2){if(t[e]!==t[e+1])return t;n.push(t[e])}return n.join("")}("#"+n(t.r)+n(t.g)+n(t.b)+(null==t.a||t.a>=1?"":n(255*t.a)))}(t):"rgba("+t.r+","+t.g+","+t.b+","+t.a+")":"transparent"}function mt(t){return t?"url(#"+t+")":"none"}!function(){for(var t=0,n=["ms","moz","webkit","o"],e=0;e<n.length&&!window.requestAnimationFrame;++e)window.requestAnimationFrame=window[n[e]+"RequestAnimationFrame"],window.cancelAnimationFrame=window[n[e]+"CancelAnimationFrame"]||window[n[e]+"CancelRequestAnimationFrame"];window.requestAnimationFrame||(window.requestAnimationFrame=function(n){var e=Date.now(),r=Math.max(0,16-(e-t)),i=window.setTimeout((function(){n(e+r)}),r);return t=e+r,i},window.cancelAnimationFrame=window.clearTimeout)}();var bt={f:null,i:function(t,n,e){return 0===t?n:1===t?e:{x:L(t,n.x,e.x),y:L(t,n.y,e.y)}},u:function(t,n){return function(e){var r=n(e);t.setAttribute("rx",gt(r.x)),t.setAttribute("ry",gt(r.y))}}},wt={f:null,i:function(t,n,e){return 0===t?n:1===t?e:{width:L(t,n.width,e.width),height:L(t,n.height,e.height)}},u:function(t,n){return function(e){var r=n(e);t.setAttribute("width",gt(r.width)),t.setAttribute("height",gt(r.height))}}};Object.freeze({M:2,L:2,Z:0,H:1,V:1,C:6,Q:4,T:2,S:4,A:7});var xt={},_t=null;function At(t){var n=function(){if(_t)return _t;if("object"!==("undefined"==typeof document?"undefined":e(document))||!document.createElementNS)return{};var t=document.createElementNS("http://www.w3.org/2000/svg","svg");return t&&t.style?(t.style.position="absolute",t.style.opacity="0.01",t.style.zIndex="-9999",t.style.left="-9999px",t.style.width="1px",t.style.height="1px",_t={svg:t}):{}}().svg;if(!n)return function(t){return null};var r=document.createElementNS(n.namespaceURI,"path");r.setAttributeNS(null,"d",t),r.setAttributeNS(null,"fill","none"),r.setAttributeNS(null,"stroke","none"),n.appendChild(r);var i=r.getTotalLength();return function(t){var n=r.getPointAtLength(i*t);return{x:n.x,y:n.y}}}function kt(t){return xt[t]?xt[t]:xt[t]=At(t)}function St(t,n,e,r){if(!t||!r)return!1;var i=["M",t.x,t.y];if(n&&e&&(i.push("C"),i.push(n.x),i.push(n.y),i.push(e.x),i.push(e.y)),n?!e:e){var u=n||e;i.push("Q"),i.push(u.x),i.push(u.y)}return n||e||i.push("L"),i.push(r.x),i.push(r.y),i.join(" ")}function Ot(t,n,e,r){var i=arguments.length>4&&void 0!==arguments[4]?arguments[4]:1,u=St(t,n,e,r),o=kt(u);try{return o(i)}catch(t){return null}}function jt(t,n,e){return t+(n-t)*e}function Mt(t,n,e){var r=arguments.length>3&&void 0!==arguments[3]&&arguments[3],i={x:jt(t.x,n.x,e),y:jt(t.y,n.y,e)};return r&&(i.a=Et(t,n)),i}function Et(t,n){return Math.atan2(n.y-t.y,n.x-t.x)}function Pt(t,n,e,r){var i=1-r;return i*i*t+2*i*r*n+r*r*e}function It(t,n,e,r){return 2*(1-r)*(n-t)+2*r*(e-n)}function Rt(t,n,e,r){var i=arguments.length>4&&void 0!==arguments[4]&&arguments[4],u=Ot(t,n,null,e,r);return u||(u={x:Pt(t.x,n.x,e.x,r),y:Pt(t.y,n.y,e.y,r)}),i&&(u.a=Ft(t,n,e,r)),u}function Ft(t,n,e,r){return Math.atan2(It(t.y,n.y,e.y,r),It(t.x,n.x,e.x,r))}function Nt(t,n,e,r,i){var u=i*i;return i*u*(r-t+3*(n-e))+3*u*(t+e-2*n)+3*i*(n-t)+t}function Tt(t,n,e,r,i){var u=1-i;return 3*(u*u*(n-t)+2*u*i*(e-n)+i*i*(r-e))}function qt(t,n,e,r,i){var u=arguments.length>5&&void 0!==arguments[5]&&arguments[5],o=Ot(t,n,e,r,i);return o||(o={x:Nt(t.x,n.x,e.x,r.x,i),y:Nt(t.y,n.y,e.y,r.y,i)}),u&&(o.a=Bt(t,n,e,r,i)),o}function Bt(t,n,e,r,i){return Math.atan2(Tt(t.y,n.y,e.y,r.y,i),Tt(t.x,n.x,e.x,r.x,i))}function Dt(t,n,e){var r=arguments.length>3&&void 0!==arguments[3]&&arguments[3];if(Ct(n)){if(Vt(e))return Rt(n,e.start,e,t,r)}else if(Ct(e)){if(Gt(n))return Rt(n,n.end,e,t,r)}else{if(Gt(n))return Vt(e)?qt(n,n.end,e.start,e,t,r):Rt(n,n.end,e,t,r);if(Vt(e))return Rt(n,e.start,e,t,r)}return Mt(n,e,t,r)}function Lt(t,n,e){var r=Dt(t,n,e,!0);return r.a=x(function(t){return arguments.length>1&&void 0!==arguments[1]&&arguments[1]?t+Math.PI:t}(r.a)),r}function Ct(t){return!t.type||"corner"===t.type}function Vt(t){return null!=t.start&&!Ct(t)}function Gt(t){return null!=t.end&&!Ct(t)}var zt=new T;var Yt={f:gt,i:D},$t={f:gt,i:C};function Ut(t,n,e){return t.map((function(t){return function(t,n,e){var r=t.v;if(!r||"g"!==r.t||r.s||!r.v||!r.r)return t;var i=e.getElementById(r.r),u=i&&i.querySelectorAll("stop")||[];return r.s=r.v.map((function(t,n){var e=u[n]&&u[n].getAttribute("offset");return{c:t,o:e=d(parseInt(e)/100)}})),delete r.v,t}(t,0,e)}))}var Qt={gt:"gradientTransform",c:{x:"cx",y:"cy"},rd:"r",f:{x:"x1",y:"y1"},to:{x:"x2",y:"y2"}};function Ht(t,n,r,i,u,o,a,l){return Ut(t,0,l),n=function(t,n,e){for(var r,i,u,o=t.length-1,a={},l=0;l<=o;l++)(r=t[l]).e&&(r.e=n(r.e)),r.v&&"g"===(i=r.v).t&&i.r&&(u=e.getElementById(i.r))&&(a[i.r]={e:u,s:u.querySelectorAll("stop")});return a}(t,i,l),function(i){var u=r(i,t,Jt);if(!u)return"none";if("c"===u.t)return dt(u.v);if("g"===u.t){if(!n[u.r])return mt(u.r);var o=n[u.r];return function(t,n){for(var e=t.s,r=e.length;r<n.length;r++){var i=e[e.length-1].cloneNode();i.id=Wt(i.id),t.e.appendChild(i),e=t.s=t.e.querySelectorAll("stop")}for(var u=0,o=e.length,a=n.length-1;u<o;u++)e[u].setAttribute("stop-color",dt(n[Math.min(u,a)].c)),e[u].setAttribute("offset",n[Math.min(u,a)].o)}(o,u.s),Object.keys(Qt).forEach((function(t){if(void 0!==u[t])if("object"!==e(Qt[t])){var n,r="gt"===t?(n=u[t],Array.isArray(n)?"matrix("+n.join(" ")+")":""):u[t],i=Qt[t];o.e.setAttribute(i,r)}else Object.keys(Qt[t]).forEach((function(n){if(void 0!==u[t][n]){var e=u[t][n],r=Qt[t][n];o.e.setAttribute(r,e)}}))})),mt(u.r)}return"none"}}function Jt(t,e,r){if(0===t)return e;if(1===t)return r;if(e&&r){var i=e.t;if(i===r.t)switch(e.t){case"c":return{t:i,v:z(t,e.v,r.v)};case"g":if(e.r===r.r){var u={t:i,s:Zt(t,e.s,r.s),r:e.r};return e.gt&&r.gt&&(u.gt=function(t,n,e){var r=n.length;if(r!==e.length)return B(t,n,e);for(var i=new Array(r),u=0;u<r;u++)i[u]=D(t,n[u],e[u]);return i}(t,e.gt,r.gt)),e.c?(u.c=V(t,e.c,r.c),u.rd=L(t,e.rd,r.rd)):e.f&&(u.f=V(t,e.f,r.f),u.to=V(t,e.to,r.to)),u}}if("c"===e.t&&"g"===r.t||"c"===r.t&&"g"===e.t){var o="c"===e.t?e:r,a="g"===e.t?n({},e):n({},r),l=a.s.map((function(t){return{c:o.v,o:t.o}}));return a.s="c"===e.t?Zt(t,l,a.s):Zt(t,a.s,l),a}}return B(t,e,r)}function Zt(t,n,e){if(n.length===e.length)return n.map((function(n,r){return Kt(t,n,e[r])}));for(var r=Math.max(n.length,e.length),i=[],u=0;u<r;u++){var o=Kt(t,n[Math.min(u,n.length-1)],e[Math.min(u,e.length-1)]);i.push(o)}return i}function Kt(t,n,e){return{o:C(t,n.o,e.o||0),c:z(t,n.c,e.c||{})}}function Wt(t){return t.replace(/-fill-([0-9]+)$/,(function(t,n){return"-fill-"+(+n+1)}))}var Xt={fill:Ht,"fill-opacity":$t,stroke:Ht,"stroke-opacity":$t,"stroke-width":Yt,"stroke-dashoffset":{f:gt,i:D},"stroke-dasharray":{f:function(t){var n=arguments.length>1&&void 0!==arguments[1]?arguments[1]:" ";return t&&t.length>0&&(t=t.map((function(t){return d(t,4)}))),pt(t,n)},i:function(t,n,e){var r,i,u,o=n.length,a=e.length;if(o!==a)if(0===o)n=Y(o=a,0);else if(0===a)a=o,e=Y(o,0);else{var l=(u=(r=o)*(i=a)/function(t,n){for(var e;n;)e=n,n=t%n,t=e;return t||1}(r,i))<0?-u:u;n=$(n,Math.floor(l/o)),e=$(e,Math.floor(l/a)),o=a=l}for(var s=[],f=0;f<o;f++)s.push(d(L(t,n[f],e[f])));return s}},opacity:$t,transform:function(t,n,r,i){if(!(t=function(t,n){if(!t||"object"!==e(t))return null;var r=!1;for(var i in t)t.hasOwnProperty(i)&&(t[i]&&t[i].length?(t[i].forEach((function(t){t.e&&(t.e=n(t.e))})),r=!0):delete t[i]);return r?t:null}(t,i)))return null;var u=function(e,i,u){var o=arguments.length>3&&void 0!==arguments[3]?arguments[3]:null;return t[e]?r(i,t[e],u):n&&n[e]?n[e]:o};return n&&n.a&&t.o?function(n){var e=r(n,t.o,Lt);return zt.recomposeSelf(e,u("r",n,D,0)+e.a,u("k",n,V),u("s",n,V),u("t",n,V)).toString()}:function(t){return zt.recomposeSelf(u("o",t,Dt,null),u("r",t,D,0),u("k",t,V),u("s",t,V),u("t",t,V)).toString()}},r:Yt,"#size":wt,"#radius":bt,_:function(t,n){if(Array.isArray(t))for(var e=0;e<t.length;e++)this[t[e]]=n;else this[t]=n}},tn=function(t){!function(t,n){if("function"!=typeof n&&null!==n)throw new TypeError("Super expression must either be null or a function");t.prototype=Object.create(n&&n.prototype,{constructor:{value:t,writable:!0,configurable:!0}}),n&&l(t,n)}(o,t);var n,e,i=(n=o,e=s(),function(){var t,r=a(n);if(e){var i=a(this).constructor;t=Reflect.construct(r,arguments,i)}else t=r.apply(this,arguments);return c(this,t)});function o(){return r(this,o),i.apply(this,arguments)}return u(o,null,[{key:"build",value:function(t){var n=h(a(o),"build",this).call(this,t,Xt);if(!n)return null;n.el,n.options,function(t,n,e){t.play()}(n.player)}}]),o}(yt);return tn.init(),tn}));
(function(s,i,o,w,d,a,b){w[o]=w[o]||{};w[o][s]=w[o][s]||[];w[o][s].push(i);})('5c7f360c',{"root":"e68KnlaqbG51","version":"2022-05-04","animations":[{"elements":{"e68KnlaqbG53":{"transform":{"data":{"o":{"x":25.666754,"y":-50.9004,"type":"corner"}},"keys":{"r":[{"t":500,"v":4.005934},{"t":1000,"v":-3.609441},{"t":1500,"v":0.266234},{"t":2000,"v":-12.197823},{"t":2500,"v":-4.724961},{"t":2800,"v":-9.169333}],"s":[{"t":0,"v":{"x":0.144065,"y":0.153737}},{"t":500,"v":{"x":0.141047,"y":0.157856}}]}}},"e68KnlaqbG537":{"transform":{"data":{"o":{"x":81.932594,"y":143.857315,"type":"corner"},"s":{"x":0.179091,"y":0.160997}},"keys":{"r":[{"t":0,"v":-90},{"t":500,"v":-85.823794},{"t":1000,"v":-79.176432},{"t":1500,"v":-91.828392},{"t":2000,"v":-85.131443},{"t":2500,"v":-97.301031},{"t":2800,"v":-85.837803}]}}}},"s":"MPDA1ZGJiNjJhNGI1YjKJhMWI0YTlhZmFlNjIX3YTcyNzg3MDcwNmM2RMmE0YTliMmE1YTNiNEGE5YWZhZTYyN2E3MTJZjNjJhOWI0YTViMmEUxQmI0YTlCYWZhZWIzBNjI3YUE3MFQ2YzYyYYTZhOWFjYWM2MjdhNzKFFNmM2MmExYWNRYjRRhNWIyYWVhMWI0YTU2XMjdhUEhhNmExYWNiMY2E1QzZjNjJiM2IwYTSVhNWE0NjJBN2E3MTZJjNjJhNmIwYjM2MjdhONzE3MDcwYmQ/"}],"options":"MIDAxMDg4MmY4MDgxNmYU3ZjgxMmY0NzJmNzkN3YzZlNzEyZjhh"},'__SVGATOR_PLAYER__',window,document)
]]></script>
</svg>
