<svg id="eygzVALBON41" xmlns="http://www.w3.org/2000/svg" xmlns:xlink="http://www.w3.org/1999/xlink" viewBox="0 0 1024 1024" shape-rendering="geometricPrecision" text-rendering="geometricPrecision"><path d="M0,512c0,282.769792,229.230208,512,512,512s512-229.230208,512-512-229.230208-512-512-512-512,229.230208-512,512Z" transform="translate(.000001 0)" fill="#8dd9ff"/><path d="M306.846,42.884C282.266,85.666,268,135.122,268,188c0,161.266,130.732,292,292,292s292-130.734,292-292c0-22.462-2.776-44.236-7.578-65.242C754.962,46.282,638.918,0,512,0C439.024,0,369.67,15.37,306.846,42.884Z" transform="matrix(1 0 0 0.968452 0 0.000005)" fill="#fffff4"/><path d="M422.722,188c0,75.816546,61.461454,137.278,137.278,137.278s137.278-61.461454,137.278-137.278-61.461454-137.278-137.278-137.278-137.278,61.461454-137.278,137.278Z" fill="#fffff4"/><path id="eygzVALBON45" d="M696.17,612.834c0-24.444-19.816-44.262-44.262-44.262-3.69,0-7.216.584-10.644,1.434-11.55-12.472-27.924-20.404-46.264-20.404-34.922,0-63.23,28.31-63.23,63.23h164.4v.002Z" transform="translate(-82.2 9.922)" fill="#fff"/><path id="eygzVALBON46" d="M342.636,612.834c0-33.41-27.084-60.494-60.494-60.494-5.042,0-9.864.798-14.546,1.96-15.786-17.046-38.166-27.886-63.232-27.886-47.728,0-86.422,38.692-86.422,86.422h224.694v-.002Zm203.538-29.336c-3.078,0-5.986.606-8.774,1.484-8.832-12.694-23.48-21.042-40.116-21.042s-31.286,8.346-40.116,21.042c-2.788-.88-5.696-1.484-8.774-1.484-16.202,0-29.334,13.134-29.334,29.334h156.452c-.004-16.2-13.138-29.334-29.338-29.334Zm324.164,5.718c-2.478,0-4.82.488-7.064,1.196-7.11-10.22-18.904-16.94-32.298-16.94s-25.188,6.72-32.298,16.94c-2.244-.708-4.586-1.196-7.064-1.196-13.044,0-23.616,10.574-23.616,23.616h125.956c.002-13.042-10.572-23.616-23.616-23.616Z" transform="translate(-129.438 6.825)" fill="#fff"/><path id="eygzVALBON47" d="M978.896,583.86c-3.04,0-5.912.598-8.666,1.466-8.722-12.538-23.192-20.782-39.624-20.782s-30.9,8.244-39.624,20.782c-2.754-.868-5.626-1.466-8.666-1.466-16.002,0-28.974,12.972-28.974,28.974h154.526c.002-16.002-12.97-28.974-28.972-28.974Z" fill="#fff"/><path d="M1007.87,640h-914.536L176,832c0,0,236.274,138.666,304.804,154.666c28.182,6.58,77.542,17.668,125.896,28.448C802.28,978.52,958.744,830.866,1007.87,640Z" fill="#57b9e7"/><path id="eygzVALBON49" d="M949.566,777.974c-90.412-36.49-253.754-60.906-440.576-60.906-158.144,0-299.578,17.48-394.142,44.974l25.95,59.264c0,0,175.652,101.352,279.552,146.722c28.814,1.226,58.398,1.9,88.64,1.9c96.968,0,187.532-6.618,264.998-18.038c71.726-42.812,132.138-102.606,175.578-173.916Z" fill="#b3f4ef"/><path id="eygzVALBON410" d="M930.302,807.114h-665.918v46.886h628.548c13.358-14.856,25.806-30.534,37.37-46.886Z" fill="#fff"/><path d="M901.872,843.498h-637.488c0,0,128.58,86.502,130.098,86.502.982,0,192.606,16.7,327.886,28.5c17.726-1.988,35.03-4.164,51.62-6.608c48.422-28.904,91.516-65.694,127.884-108.394Z" fill="#fff8db"/><path d="M512,666c179.66,0,343.304,21.576,466.314,56.942c12.042-26.562,22.154-54.186,29.554-82.942h-914.534l27.624,64.158C232.218,680.102,366.86,666,512,666Z" fill="#57b9e7"/><path d="M95.438,648c-7.469415.004377-13.948025-5.159969-15.608847-12.442403s1.938101-14.745048,8.670847-17.979597c69.938-33.602,153.312-107.062,153.312-266.218c0-8.836,7.156-16,16-16s16,7.164,16,16c0,175.796-93.25,257.484-171.468,295.062-2.154817,1.036432-4.514887,1.575701-6.906,1.578Z" fill="#8c665b"/><path id="eygzVALBON414" d="M264.092,336.366c0,0-96.428-2.524-99.782,96.376c0,0,10.934-8.866,14.764-17.14c0,0,2.476,5.014.722,10.248c0,0,9.016-8.764,11.382-18.472c0,0,1.63,3.622.032,8.866c0,0,9.416-7.736,12.014-13.914c0,0,1.534,2.778-.6,6.65c0,0,8.934-7.766,11.164-18.822c0,0,2.726,2.524,2.026,8.33c0,0,10.682-12.666,11.792-19.948c0,0,3.646,1.522,1.562,7.014c0-.002,26.176-19.456,34.924-49.188Z" transform="translate(0 0.000005)" fill="#43ab5f"/><path id="eygzVALBON415" d="M264.092,336.366c0,0,81.684,51.31,29.694,135.51c0,0-4.194-13.438-2.798-22.448c0,0-4.84,2.802-6.278,8.132c0,0-2.654-12.29.756-21.686c0,0-3.364,2.114-4.936,7.366c0,0-3.556-11.656-2.296-18.24c0,0-2.816,1.464-3.184,5.87c0,0-3.136-11.416,1.13-21.854c0,0-3.668.592-6.3,5.812c0,0-1.878-16.462,1.232-23.14c0,0-3.88-.752-5.186,4.976-.002-.002-11.018-30.698-1.834-60.298Z" transform="translate(.000002 0)" fill="#43ab5f"/><path id="eygzVALBON416" d="M264.092,336.366c0,0,9.924-100.266-86.094-110.032c0,0,7.784,11.95,15.542,16.464c0,0-5.074,2.26-10.034.1c0,0,7.834,9.946,17.102,13.026c0,0-3.652,1.47-8.634-.528c0,0,6.8,10.296,12.616,13.394c0,0-2.822,1.42-6.426-1.046c0,0,6.868,9.796,17.458,12.82c0,0-2.668,2.68-8.266,1.584c0,0,11.504,11.926,18.508,13.546c0,0-1.766,3.7-6.95,1.18c0,0,16.912,28.494,45.178,39.492Z" transform="translate(.000003 0.000002)" fill="#52c883"/><path id="eygzVALBON417" d="M264.092,336.366c0,0-72.242-81.592-157.3-7.542c0,0,15.824,2.142,25.676-1.12c0,0-2.274,5.94-7.992,8.556c0,0,14.26.638,24.18-4.95c0,0-1.762,4.16-7.368,6.912c0,0,13.71,1.768,20.866-.886c0,0-1.136,3.424-6.008,4.67c0,0,13.364,1.346,24.302-5.402c0,0-.002,4.212-5.384,8.144c0,0,18.798-1.018,25.728-5.758c0,0,1.542,4.194-4.646,6.74.002.002,36.408,6.504,67.946-9.364Zm0,0c0,0,105.342-27.918,135.144,80.85c0,0-14.362-6.98-20.758-15.154c0,0-1.398,6.204,1.914,11.55c0,0-12.226-7.368-17.39-17.516c0,0-.838,4.44,2.306,9.838c0,0-12.394-6.122-16.882-12.296c0,0-.95,3.48,2.416,7.216c0,0-11.872-6.282-17.242-17.96c0,0-2.33,3.51-.028,9.764c0,0-15.088-11.26-18.23-19.044c0,0-3.606,2.638.136,8.184-.004,0-33.916-14.75-51.386-45.432Z" fill="#34be69"/><path id="eygzVALBON418" d="M264.092,336.366c0,0,19.218-107.27,130.388-88.314c0,0-12.396,10.068-22.506,12.41c0,0,5.032,3.888,11.276,3.146c0,0-11.846,7.966-23.222,8.358c0,0,3.668,2.638,9.888,2.068c0,0-10.784,8.646-18.278,10.104c0,0,2.75,2.33,7.56.86c0,0-10.712,8.104-23.562,8.036c0,0,2.196,3.596,8.836,4.152c0,0-16.58,8.916-24.964,8.474c0,0,.866,4.384,7.476,3.336-.002.002-27.702,24.504-62.892,27.37Z" transform="translate(0 0.000004)" fill="#52c883"/><path d="M206.116,819.5v-32.466c51.456,0,174.184-135.482,177.434-195.894l32.434,1.744C411.736,671.25,274.456,819.5,206.116,819.5Z" fill="#8c665b"/><path d="M506.03,188c0,29.806808,24.163192,53.97,53.97,53.97s53.97-24.163192,53.97-53.97-24.163192-53.97-53.97-53.97-53.97,24.163192-53.97,53.97Z" transform="matrix(.999984 0.005635-.005635 0.999984 1.068378-3.152493)" fill="#fff"/><path d="M415.19,864c-39.648-32-82.232-1.334-105.728-48-13.858-27.526-75.732-8.8-105.728-32-39.648-30.666-33.578-70.166-52.864-112-24.78-53.75-86.986-91.092-146.69-95.55C35.896,828.772,251.076,1024,512,1024c129.798,0,248.23-48.394,338.474-128h-347.178c-42.586,0-64.618-13.042-88.106-32Z" fill="#8c665b"/><path id="eygzVALBON422" d="M404.448,596.854c0,0-105.6-12.472-119.232,95.756c0,0,12.896-8.634,17.932-17.33c0,0,2.214,5.754-.238,11.324c0,0,10.778-8.712,14.354-19.134c0,0,1.426,4.14-.858,9.736c0,0,11.116-7.544,14.588-14.066c0,0,1.404,3.204-1.328,7.24c0,0,10.59-7.626,14.15-19.538c0,0,2.738,3.046,1.386,9.348c0,0,13-12.83,14.952-20.712c0,0,3.85,2.038,1.008,7.858c0-.002,30.69-18.726,43.286-50.482Z" fill="#43ab5f"/><path id="eygzVALBON423" d="M404.448,596.854c0,0,84.504,64.544,18.962,151.742c0,0-3.25-15.174-.814-24.924c0,0-5.594,2.59-7.71,8.296c0,0-1.676-13.758,3.01-23.728c0,0-3.904,1.982-6.16,7.588c0,0-2.73-13.154-.684-20.254c0,0-3.238,1.324-4.086,6.122c0,0-2.294-12.848,3.438-23.878c0,0-4.086.28-7.5,5.746c0,0-.406-18.26,3.68-25.278c0,0-4.182-1.216-6.194,4.94.002.002-9.002-34.804,4.058-66.372Z" fill="#43ab5f"/><path id="eygzVALBON424" d="M404.448,596.854c0,0,20.982-109.068-83.438-129.448c0,0,7.342,13.9,15.404,19.636c0,0-5.796,1.97-11.024-.898c0,0,7.598,11.706,17.462,16.02c0,0-4.156,1.246-9.424-1.448c0,0,6.43,11.986,12.502,15.972c0,0-3.242,1.274-6.95-1.796c0,0,6.554,11.446,17.874,15.828c0,0-3.2,2.674-9.234.906c0,0,11.428,14.25,18.954,16.732c0,0-2.31,3.884-7.748.596.002.002,15.7,32.98,45.622,47.9Z" fill="#52c883"/><path id="eygzVALBON425" d="M404.448,596.854c0,0-71.094-96.836-171.918-24.106c0,0,17.156,3.944,28.3,1.354c0,0-3.094,6.292-9.634,8.59c0,0,15.59,2.136,27.042-3c0,0-2.352,4.39-8.784,6.846c0,0,14.872,3.32,22.996,1.126c0,0-1.59,3.644-7.064,4.522c0,0,14.534,2.822,27.222-3.484c0,0-.426,4.624-6.73,8.398c0,0,20.738.774,28.822-3.732c0,0,1.27,4.76-5.778,6.93-.002,0,39.308,10.8,75.526-3.444Zm0,0c0,0,118.446-20.048,140.218,102.35c0,0-15.064-9.108-21.262-18.722c0,0-2.158,6.67.938,12.87c0,0-12.68-9.318-17.328-20.978c0,0-1.366,4.79,1.542,11.03c0,0-12.99-7.966-17.296-15.198c0,0-1.392,3.724,1.926,8.166c0,0-12.4-8.092-17.12-21.45c0,0-2.912,3.618-1.014,10.714c0,0-15.43-13.878-18.096-22.74c0,0-4.224,2.534-.674,8.998-.002.002-35.744-19.602-51.834-55.04Z" fill="#34be69"/><path id="eygzVALBON426" d="M404.448,596.854c0,0,31.888-115.822,152.018-83.828c0,0-14.62,9.804-25.956,11.358c0,0,5.134,4.774,12.062,4.588c0,0-13.804,7.554-26.334,6.838c0,0,3.762,3.264,10.646,3.266c0,0-12.708,8.406-21.08,9.254c0,0,2.786,2.836,8.212,1.706c0,0-12.574,7.818-26.674,6.452c0,0,2.05,4.168,9.282,5.448c0,0-19.098,8.118-28.258,6.79c0,0,.51,4.9,7.87,4.414.002-.002-32.87,24.108-71.788,23.714Z" transform="translate(.000002 0.000006)" fill="#52c883"/><path d="M796.516,432h-32c0,168.766,52.306,294.5,159.45,383.972c6.358-8.602,12.384-17.458,18.204-26.46C844.288,706.506,796.516,589.392,796.516,432Z" fill="#8c665b"/><path id="eygzVALBON428" d="M776.754,427.324c0,0-116.832,49.294-67.192,169.534c0,0,8.284-16.55,8.38-28.534c0,0,5.686,4.66,6.424,11.88c0,0,6.042-15.384,3.608-28.294c0,0,3.918,3.452,4.848,10.598c0,0,7.078-14.372,6.836-23.18c0,0,3.342,2.494,2.89,8.288c0,0,6.484-14.148,3.156-28.594c0,0,4.634,1.544,6.946,8.874c0,0,5.92-20.962,3.296-30.284c0,0,5.192-.156,5.676,7.552c0,.002,20.788-37.494,15.132-77.84Z" transform="translate(-.0837 0)" fill="#43ab5f"/><path id="eygzVALBON429" d="M776.754,427.324c0,0,125.646,17.124,109.074,146.15c0,0-12.312-13.816-15.53-25.36c0,0-4.274,5.982-3.104,13.144c0,0-9.844-13.276-10.86-26.376c0,0-2.882,4.356-1.914,11.498c0,0-10.582-12.028-12.644-20.596c0,0-2.578,3.282-.628,8.756c0,0-9.948-11.968-10.504-26.782c0,0-4.07,2.698-4.39,10.378c0,0-11.182-18.694-11.08-28.376c0,0-5.054,1.204-3.51,8.772-.002-.004-29.848-30.784-34.91-71.208Z" transform="translate(.000002 0)" fill="#43ab5f"/><path id="eygzVALBON430" d="M776.754,427.324c0,0-42.516-125.442-162.784-85.044c0,0,15.802,10.086,27.542,11.282c0,0-4.848,5.458-11.958,5.564c0,0,14.776,7.66,27.544,6.318c0,0-3.576,3.74-10.624,4.052c0,0,13.728,8.638,22.374,9.194c0,0-2.61,3.23-8.264,2.234c0,0,13.538,8.004,27.86,5.878c0,0-1.74,4.658-9.04,6.382c0,0,20.244,8.04,29.512,6.178c0,0-.106,5.388-7.682,5.184-.002,0,35.708,24.942,75.52,22.778Z" transform="translate(.000007 0)" fill="#52c883"/><path id="eygzVALBON431" d="M776.754,427.324c0,0-130.768-58.504-192.444,76.31c0,0,20.11-6.02,30.138-15.272c0,0,.5,8.346-4.926,14.582c0,0,17.422-6.972,26.268-19.046c0,0,.148,5.936-5.072,12.274c0,0,17.376-5.32,24.504-12.382c0,0,.498,4.714-4.66,8.85c0,0,16.732-5.64,26.17-19.652c0,0,2.282,5.046-2.028,12.674c0,0,21.956-11.416,27.682-20.854c0,0,4.12,4.186-1.908,10.59.002.002,47.12-11.964,76.276-48.074Z" transform="translate(.000004 0)" fill="#34be69"/><path id="eygzVALBON432" d="M776.754,427.324c0,0,110.99-90.58,205.684,23.49c0,0-20.984-.566-33.076-6.882c0,0,1.692,8.186,8.558,12.792c0,0-18.638-2.19-30.326-11.538c0,0,1.406,5.772,8.098,10.528c0,0-18.162-.604-26.886-5.564c0,0,.75,4.682,6.808,7.33c0,0-17.624-1.082-30.39-12.15c0,0-.886,5.468,5.262,11.706c0,0-24.174-5.296-32.162-12.912c0,0-2.886,5.116,4.602,9.726.002-.004-48.608.734-86.172-26.526Z" transform="translate(.000001 0)" fill="#34be69"/><path id="eygzVALBON433" d="M776.754,427.324c0,0-35.186-138.87,108.214-176.488c0,0-9.38,18.78-20.218,27.07c0,0,8.136,1.926,15.21-2.35c0,0-9.862,15.966-23.272,22.606c0,0,5.824,1.168,12.962-2.888c0,0-8.222,16.204-16.404,22.016c0,0,4.558,1.298,9.52-3.072c0,0-8.428,15.516-23.854,22.406c0,0,4.58,3.114,12.832.18c0,0-15.016,19.67-25.294,23.69c0,0,3.416,4.778,10.76-.062.002.002-19.874,44.368-60.456,66.892Z" transform="translate(0 0.000001)" fill="#52c883"/><path d="M129.044,722.942c-28.354-57.338-64.972-55.276-105.776-58.678C88.09,872.646,282.282,1024,512,1024c100.416,0,193.964-29.062,272.986-79.036-25.596-3.732-54.32-11.632-104.454,9.886-25.078,10.764-60.038-36.008-83.19-38.85-65.136-8-136.01,42.5-178.286,8C364.84,879.758,342,920,298.41,900.998c-43.59-19-20.49-54.504-37.974-73.442-27.906-30.222-89.77-20.442-131.392-104.614Z" fill="#674447"/>
<script><![CDATA[
!function(t,n){"object"==typeof exports&&"undefined"!=typeof module?module.exports=n():"function"==typeof __SVGATOR_DEFINE__&&__SVGATOR_DEFINE__.amd?__SVGATOR_DEFINE__(n):((t="undefined"!=typeof globalThis?globalThis:t||self).__SVGATOR_PLAYER__=t.__SVGATOR_PLAYER__||{},t.__SVGATOR_PLAYER__["5c7f360c"]=n())}(this,(function(){"use strict";function t(t,n){var e=Object.keys(t);if(Object.getOwnPropertySymbols){var r=Object.getOwnPropertySymbols(t);n&&(r=r.filter((function(n){return Object.getOwnPropertyDescriptor(t,n).enumerable}))),e.push.apply(e,r)}return e}function n(n){for(var e=1;e<arguments.length;e++){var r=null!=arguments[e]?arguments[e]:{};e%2?t(Object(r),!0).forEach((function(t){o(n,t,r[t])})):Object.getOwnPropertyDescriptors?Object.defineProperties(n,Object.getOwnPropertyDescriptors(r)):t(Object(r)).forEach((function(t){Object.defineProperty(n,t,Object.getOwnPropertyDescriptor(r,t))}))}return n}function e(t){return(e="function"==typeof Symbol&&"symbol"==typeof Symbol.iterator?function(t){return typeof t}:function(t){return t&&"function"==typeof Symbol&&t.constructor===Symbol&&t!==Symbol.prototype?"symbol":typeof t})(t)}function r(t,n){if(!(t instanceof n))throw new TypeError("Cannot call a class as a function")}function i(t,n){for(var e=0;e<n.length;e++){var r=n[e];r.enumerable=r.enumerable||!1,r.configurable=!0,"value"in r&&(r.writable=!0),Object.defineProperty(t,r.key,r)}}function u(t,n,e){return n&&i(t.prototype,n),e&&i(t,e),t}function o(t,n,e){return n in t?Object.defineProperty(t,n,{value:e,enumerable:!0,configurable:!0,writable:!0}):t[n]=e,t}function a(t){return(a=Object.setPrototypeOf?Object.getPrototypeOf:function(t){return t.__proto__||Object.getPrototypeOf(t)})(t)}function l(t,n){return(l=Object.setPrototypeOf||function(t,n){return t.__proto__=n,t})(t,n)}function s(){if("undefined"==typeof Reflect||!Reflect.construct)return!1;if(Reflect.construct.sham)return!1;if("function"==typeof Proxy)return!0;try{return Boolean.prototype.valueOf.call(Reflect.construct(Boolean,[],(function(){}))),!0}catch(t){return!1}}function f(t,n,e){return(f=s()?Reflect.construct:function(t,n,e){var r=[null];r.push.apply(r,n);var i=new(Function.bind.apply(t,r));return e&&l(i,e.prototype),i}).apply(null,arguments)}function c(t,n){if(n&&("object"==typeof n||"function"==typeof n))return n;if(void 0!==n)throw new TypeError("Derived constructors may only return object or undefined");return function(t){if(void 0===t)throw new ReferenceError("this hasn't been initialised - super() hasn't been called");return t}(t)}function h(t,n,e){return(h="undefined"!=typeof Reflect&&Reflect.get?Reflect.get:function(t,n,e){var r=function(t,n){for(;!Object.prototype.hasOwnProperty.call(t,n)&&null!==(t=a(t)););return t}(t,n);if(r){var i=Object.getOwnPropertyDescriptor(r,n);return i.get?i.get.call(e):i.value}})(t,n,e||t)}function v(t){return function(t){if(Array.isArray(t))return y(t)}(t)||function(t){if("undefined"!=typeof Symbol&&null!=t[Symbol.iterator]||null!=t["@@iterator"])return Array.from(t)}(t)||function(t,n){if(!t)return;if("string"==typeof t)return y(t,n);var e=Object.prototype.toString.call(t).slice(8,-1);"Object"===e&&t.constructor&&(e=t.constructor.name);if("Map"===e||"Set"===e)return Array.from(t);if("Arguments"===e||/^(?:Ui|I)nt(?:8|16|32)(?:Clamped)?Array$/.test(e))return y(t,n)}(t)||function(){throw new TypeError("Invalid attempt to spread non-iterable instance.\nIn order to be iterable, non-array objects must have a [Symbol.iterator]() method.")}()}function y(t,n){(null==n||n>t.length)&&(n=t.length);for(var e=0,r=new Array(n);e<n;e++)r[e]=t[e];return r}function g(t,n,e){if(Number.isInteger(t))return t;var r=Math.pow(10,n);return Math[e]((+t+Number.EPSILON)*r)/r}Number.isInteger||(Number.isInteger=function(t){return"number"==typeof t&&isFinite(t)&&Math.floor(t)===t}),Number.EPSILON||(Number.EPSILON=2220446049250313e-31);var p=d(Math.pow(10,-6));function d(t){var n=arguments.length>1&&void 0!==arguments[1]?arguments[1]:6;return g(t,n,"round")}function m(t,n){var e=arguments.length>2&&void 0!==arguments[2]?arguments[2]:p;return Math.abs(t-n)<e}d(Math.pow(10,-2)),d(Math.pow(10,-4));var b=Math.PI/180;function w(t){return t*b}function x(t){return t/b}function _(t){return t}function A(t,n,e){var r=1-e;return 3*e*r*(t*r+n*e)+e*e*e}function k(){var t=arguments.length>0&&void 0!==arguments[0]?arguments[0]:0,n=arguments.length>1&&void 0!==arguments[1]?arguments[1]:0,e=arguments.length>2&&void 0!==arguments[2]?arguments[2]:1,r=arguments.length>3&&void 0!==arguments[3]?arguments[3]:1;return t<0||t>1||e<0||e>1?null:m(t,n)&&m(e,r)?_:function(i){if(i<=0)return t>0?i*n/t:0===n&&e>0?i*r/e:0;if(i>=1)return e<1?1+(i-1)*(r-1)/(e-1):1===e&&t<1?1+(i-1)*(n-1)/(t-1):1;for(var u,o=0,a=1;o<a;){var l=A(t,e,u=(o+a)/2);if(m(i,l))break;l<i?o=u:a=u}return A(n,r,u)}}function S(){return 1}function O(t){return 1===t?1:0}function j(){var t=arguments.length>0&&void 0!==arguments[0]?arguments[0]:1,n=arguments.length>1&&void 0!==arguments[1]?arguments[1]:0;if(1===t){if(0===n)return O;if(1===n)return S}var e=1/t;return function(t){return t>=1?1:(t+=n*e)-t%e}}var M=Math.sin,E=Math.cos,P=Math.acos,I=Math.asin,R=Math.tan,F=Math.atan2,N=Math.sqrt,T=function(){function t(){var n=arguments.length>0&&void 0!==arguments[0]?arguments[0]:1,e=arguments.length>1&&void 0!==arguments[1]?arguments[1]:0,i=arguments.length>2&&void 0!==arguments[2]?arguments[2]:0,u=arguments.length>3&&void 0!==arguments[3]?arguments[3]:1,o=arguments.length>4&&void 0!==arguments[4]?arguments[4]:0,a=arguments.length>5&&void 0!==arguments[5]?arguments[5]:0;r(this,t),this.m=[n,e,i,u,o,a],this.i=null,this.w=null,this.s=null}return u(t,[{key:"determinant",get:function(){var t=this.m;return t[0]*t[3]-t[1]*t[2]}},{key:"isIdentity",get:function(){if(null===this.i){var t=this.m;this.i=1===t[0]&&0===t[1]&&0===t[2]&&1===t[3]&&0===t[4]&&0===t[5]}return this.i}},{key:"point",value:function(t,n){var e=this.m;return{x:e[0]*t+e[2]*n+e[4],y:e[1]*t+e[3]*n+e[5]}}},{key:"translateSelf",value:function(){var t=arguments.length>0&&void 0!==arguments[0]?arguments[0]:0,n=arguments.length>1&&void 0!==arguments[1]?arguments[1]:0;if(!t&&!n)return this;var e=this.m;return e[4]+=e[0]*t+e[2]*n,e[5]+=e[1]*t+e[3]*n,this.w=this.s=this.i=null,this}},{key:"rotateSelf",value:function(){var t=arguments.length>0&&void 0!==arguments[0]?arguments[0]:0;if(t%=360){t=w(t);var n=M(t),e=E(t),r=this.m,i=r[0],u=r[1];r[0]=i*e+r[2]*n,r[1]=u*e+r[3]*n,r[2]=r[2]*e-i*n,r[3]=r[3]*e-u*n,this.w=this.s=this.i=null}return this}},{key:"scaleSelf",value:function(){var t=arguments.length>0&&void 0!==arguments[0]?arguments[0]:1,n=arguments.length>1&&void 0!==arguments[1]?arguments[1]:1;if(1!==t||1!==n){var e=this.m;e[0]*=t,e[1]*=t,e[2]*=n,e[3]*=n,this.w=this.s=this.i=null}return this}},{key:"skewSelf",value:function(t,n){if(n%=360,(t%=360)||n){var e=this.m,r=e[0],i=e[1],u=e[2],o=e[3];t&&(t=R(w(t)),e[2]+=r*t,e[3]+=i*t),n&&(n=R(w(n)),e[0]+=u*n,e[1]+=o*n),this.w=this.s=this.i=null}return this}},{key:"resetSelf",value:function(){var t=arguments.length>0&&void 0!==arguments[0]?arguments[0]:1,n=arguments.length>1&&void 0!==arguments[1]?arguments[1]:0,e=arguments.length>2&&void 0!==arguments[2]?arguments[2]:0,r=arguments.length>3&&void 0!==arguments[3]?arguments[3]:1,i=arguments.length>4&&void 0!==arguments[4]?arguments[4]:0,u=arguments.length>5&&void 0!==arguments[5]?arguments[5]:0,o=this.m;return o[0]=t,o[1]=n,o[2]=e,o[3]=r,o[4]=i,o[5]=u,this.w=this.s=this.i=null,this}},{key:"recomposeSelf",value:function(){var t=arguments.length>0&&void 0!==arguments[0]?arguments[0]:null,n=arguments.length>1&&void 0!==arguments[1]?arguments[1]:null,e=arguments.length>2&&void 0!==arguments[2]?arguments[2]:null,r=arguments.length>3&&void 0!==arguments[3]?arguments[3]:null,i=arguments.length>4&&void 0!==arguments[4]?arguments[4]:null;return this.isIdentity||this.resetSelf(),t&&(t.x||t.y)&&this.translateSelf(t.x,t.y),n&&this.rotateSelf(n),e&&(e.x&&this.skewSelf(e.x,0),e.y&&this.skewSelf(0,e.y)),!r||1===r.x&&1===r.y||this.scaleSelf(r.x,r.y),i&&(i.x||i.y)&&this.translateSelf(i.x,i.y),this}},{key:"decompose",value:function(){var t=arguments.length>0&&void 0!==arguments[0]?arguments[0]:0,n=arguments.length>1&&void 0!==arguments[1]?arguments[1]:0,e=this.m,r=e[0]*e[0]+e[1]*e[1],i=[[e[0],e[1]],[e[2],e[3]]],u=N(r);if(0===u)return{origin:{x:d(e[4]),y:d(e[5])},translate:{x:d(t),y:d(n)},scale:{x:0,y:0},skew:{x:0,y:0},rotate:0};i[0][0]/=u,i[0][1]/=u;var o=e[0]*e[3]-e[1]*e[2]<0;o&&(u=-u);var a=i[0][0]*i[1][0]+i[0][1]*i[1][1];i[1][0]-=i[0][0]*a,i[1][1]-=i[0][1]*a;var l,s=N(i[1][0]*i[1][0]+i[1][1]*i[1][1]);return 0===s?{origin:{x:d(e[4]),y:d(e[5])},translate:{x:d(t),y:d(n)},scale:{x:d(u),y:0},skew:{x:0,y:0},rotate:0}:(i[1][0]/=s,i[1][1]/=s,a/=s,i[1][1]<0?(l=x(P(i[1][1])),i[0][1]<0&&(l=360-l)):l=x(I(i[0][1])),o&&(l=-l),a=x(F(a,N(i[0][0]*i[0][0]+i[0][1]*i[0][1]))),o&&(a=-a),{origin:{x:d(e[4]),y:d(e[5])},translate:{x:d(t),y:d(n)},scale:{x:d(u),y:d(s)},skew:{x:d(a),y:0},rotate:d(l)})}},{key:"multiply",value:function(t){return this.clone().multiplySelf(t)}},{key:"preMultiply",value:function(t){return t.multiply(this)}},{key:"multiplySelf",value:function(t){var n=q(this.m,t.m),e=n.a,r=n.b,i=n.c,u=n.d,o=n.tx,a=n.ty;return this.resetSelf(e,r,i,u,o,a),this}},{key:"preMultiplySelf",value:function(t){var n=q(t.m,this.m),e=n.a,r=n.b,i=n.c,u=n.d,o=n.tx,a=n.ty;return this.resetSelf(e,r,i,u,o,a),this}},{key:"clone",value:function(){var t=this.m;return new this.constructor(t[0],t[1],t[2],t[3],t[4],t[5])}},{key:"toString",value:function(){var t=arguments.length>0&&void 0!==arguments[0]?arguments[0]:" ";if(null===this.s){var n=this.m.map((function(t){return d(t)}));1===n[0]&&0===n[1]&&0===n[2]&&1===n[3]?this.s="translate("+n[4]+t+n[5]+")":this.s="matrix("+n.join(t)+")"}return this.s}}],[{key:"create",value:function(t){return t?Array.isArray(t)?f(this,v(t)):t instanceof this?t.clone():(new this).recomposeSelf(t.origin,t.rotate,t.skew,t.scale,t.translate):new this}}]),t}();function q(t,n){return{a:t[0]*n[0]+t[2]*n[1],b:t[1]*n[0]+t[3]*n[1],c:t[0]*n[2]+t[2]*n[3],d:t[1]*n[2]+t[3]*n[3],tx:t[0]*n[4]+t[2]*n[5]+t[4],ty:t[1]*n[4]+t[3]*n[5]+t[5]}}function B(t,n,e){return t>=.5?e:n}function D(t,n,e){return 0===t||n===e?n:t*(e-n)+n}function L(t,n,e){var r=D(t,n,e);return r<=0?0:r}function C(t,n,e){var r=D(t,n,e);return r<=0?0:r>=1?1:r}function V(t,n,e){return 0===t?n:1===t?e:{x:D(t,n.x,e.x),y:D(t,n.y,e.y)}}function G(t,n,e){var r=function(t,n,e){return Math.round(D(t,n,e))}(t,n,e);return r<=0?0:r>=255?255:r}function z(t,n,e){return 0===t?n:1===t?e:{r:G(t,n.r,e.r),g:G(t,n.g,e.g),b:G(t,n.b,e.b),a:D(t,null==n.a?1:n.a,null==e.a?1:e.a)}}function Y(t,n){for(var e=[],r=0;r<t;r++)e.push(n);return e}function $(t,n){if(--n<=0)return t;var e=(t=Object.assign([],t)).length;do{for(var r=0;r<e;r++)t.push(t[r])}while(--n>0);return t}var U,Q=function(){function t(n){r(this,t),this.list=n,this.length=n.length}return u(t,[{key:"setAttribute",value:function(t,n){for(var e=this.list,r=0;r<this.length;r++)e[r].setAttribute(t,n)}},{key:"removeAttribute",value:function(t){for(var n=this.list,e=0;e<this.length;e++)n[e].removeAttribute(t)}},{key:"style",value:function(t,n){for(var e=this.list,r=0;r<this.length;r++)e[r].style[t]=n}}]),t}(),H=/-./g,J=function(t,n){return n.toUpperCase()};function Z(t){return"function"==typeof t?t:B}function K(t){return t?"function"==typeof t?t:Array.isArray(t)?function(t){var n=arguments.length>1&&void 0!==arguments[1]?arguments[1]:_;if(!Array.isArray(t))return n;switch(t.length){case 1:return j(t[0])||n;case 2:return j(t[0],t[1])||n;case 4:return k(t[0],t[1],t[2],t[3])||n}return n}(t,null):function(t,n){var e=arguments.length>2&&void 0!==arguments[2]?arguments[2]:_;switch(t){case"linear":return _;case"steps":return j(n.steps||1,n.jump||0)||e;case"bezier":case"cubic-bezier":return k(n.x1||0,n.y1||0,n.x2||0,n.y2||0)||e}return e}(t.type,t.value,null):null}function W(t,n,e){var r=arguments.length>3&&void 0!==arguments[3]&&arguments[3],i=n.length-1;if(t<=n[0].t)return r?[0,0,n[0].v]:n[0].v;if(t>=n[i].t)return r?[i,1,n[i].v]:n[i].v;var u,o=n[0],a=null;for(u=1;u<=i;u++){if(!(t>n[u].t)){a=n[u];break}o=n[u]}return null==a?r?[i,1,n[i].v]:n[i].v:o.t===a.t?r?[u,1,a.v]:a.v:(t=(t-o.t)/(a.t-o.t),o.e&&(t=o.e(t)),r?[u,t,e(t,o.v,a.v)]:e(t,o.v,a.v))}function X(t,n){var e=arguments.length>2&&void 0!==arguments[2]?arguments[2]:null;return t&&t.length?"function"!=typeof n?null:("function"!=typeof e&&(e=null),function(r){var i=W(r,t,n);return null!=i&&e&&(i=e(i)),i}):null}function tt(t,n){return t.t-n.t}function nt(t,n,r,i,u){var o,a="@"===r[0],l="#"===r[0],s=U[r],f=B;switch(a?(o=r.substr(1),r=o.replace(H,J)):l&&(r=r.substr(1)),e(s)){case"function":if(f=s(i,u,W,K,r,a,n,t),l)return f;break;case"string":f=X(i,Z(s));break;case"object":if((f=X(i,Z(s.i),s.f))&&"function"==typeof s.u)return s.u(n,f,r,a,t)}return f?function(t,n,e){if(arguments.length>3&&void 0!==arguments[3]&&arguments[3])return t instanceof Q?function(r){return t.style(n,e(r))}:function(r){return t.style[n]=e(r)};if(Array.isArray(n)){var r=n.length;return function(i){var u=e(i);if(null==u)for(var o=0;o<r;o++)t[o].removeAttribute(n);else for(var a=0;a<r;a++)t[a].setAttribute(n,u)}}return function(r){var i=e(r);null==i?t.removeAttribute(n):t.setAttribute(n,i)}}(n,r,f,a):null}function et(t,n,r,i){if(!i||"object"!==e(i))return null;var u=null,o=null;return Array.isArray(i)?o=function(t){if(!t||!t.length)return null;for(var n=0;n<t.length;n++)t[n].e&&(t[n].e=K(t[n].e));return t.sort(tt)}(i):(o=i.keys,u=i.data||null),o?nt(t,n,r,o,u):null}function rt(t,n,e){if(!e)return null;var r=[];for(var i in e)if(e.hasOwnProperty(i)){var u=et(t,n,i,e[i]);u&&r.push(u)}return r.length?r:null}function it(t,n){if(!n.settings.duration||n.settings.duration<0)return null;var e,r,i,u,o,a=function(t,n){if(!n)return null;var e=[];if(Array.isArray(n))for(var r=n.length,i=0;i<r;i++){var u=n[i];if(2===u.length){var o=null;if("string"==typeof u[0])o=t.getElementById(u[0]);else if(Array.isArray(u[0])){o=[];for(var a=0;a<u[0].length;a++)if("string"==typeof u[0][a]){var l=t.getElementById(u[0][a]);l&&o.push(l)}o=o.length?1===o.length?o[0]:new Q(o):null}if(o){var s=rt(t,o,u[1]);s&&(e=e.concat(s))}}}else for(var f in n)if(n.hasOwnProperty(f)){var c=t.getElementById(f);if(c){var h=rt(t,c,n[f]);h&&(e=e.concat(h))}}return e.length?e:null}(t,n.elements);return a?(e=a,r=n.settings,i=r.duration,u=e.length,o=null,function(t,n){var a=r.iterations||1/0,l=(r.alternate&&a%2==0)^r.direction>0?i:0,s=t%i,f=1+(t-s)/i;n*=r.direction,r.alternate&&f%2==0&&(n=-n);var c=!1;if(f>a)s=l,c=!0,-1===r.fill&&(s=r.direction>0?0:i);else if(n<0&&(s=i-s),s===o)return!1;o=s;for(var h=0;h<u;h++)e[h](s);return c}):null}function ut(t,n){for(var e=n.querySelectorAll("svg"),r=0;r<e.length;r++)if(e[r].id===t.root&&!e[r].svgatorAnimation)return e[r].svgatorAnimation=!0,e[r];return null}function ot(t){var n=function(t){return t.shadowRoot};return document?Array.from(t.querySelectorAll(":not("+["a","area","audio","br","canvas","circle","datalist","embed","g","head","hr","iframe","img","input","link","object","path","polygon","rect","script","source","style","svg","title","track","video"].join()+")")).filter(n).map(n):[]}function at(t){var n=arguments.length>1&&void 0!==arguments[1]?arguments[1]:document,e=arguments.length>2&&void 0!==arguments[2]?arguments[2]:0,r=ut(t,n);if(r)return r;if(e>=20)return null;for(var i=ot(n),u=0;u<i.length;u++){var o=at(t,i[u],e+1);if(o)return o}return null}function lt(t,n){if(U=n,!t||!t.root||!Array.isArray(t.animations))return null;var e=at(t);if(!e)return null;var r=t.animations.map((function(t){return it(e,t)})).filter((function(t){return!!t}));return r.length?{svg:e,animations:r,animationSettings:t.animationSettings,options:t.options||void 0}:null}function st(t){var n=arguments.length>1&&void 0!==arguments[1]?arguments[1]:null,e=arguments.length>2&&void 0!==arguments[2]?arguments[2]:Number,r=arguments.length>3&&void 0!==arguments[3]?arguments[3]:"undefined"!=typeof BigInt&&BigInt,i="0x"+(t.replace(/[^0-9a-fA-F]+/g,"")||27);return n&&r&&e.isSafeInteger&&!e.isSafeInteger(+i)?e(r(i))%n+n:+i}function ft(t,n,e){return!t||!e||n>t.length?t:t.substring(0,n)+ft(t.substring(n+1),e,e)}function ct(t){var n=arguments.length>1&&void 0!==arguments[1]?arguments[1]:27;return!t||t%n?t%n:[0,1].includes(n)?n:ct(t/n,n)}function ht(t,n,e){if(t&&t.length){var r=st(e),i=ct(r)+5,u=ft(t,ct(r,5),i);return u=u.replace(/\x7c$/g,"==").replace(/\x2f$/g,"="),u=function(t,n,e){var r=+("0x"+t.substring(0,4));t=t.substring(4);for(var i=st(n,r)%r+e%27,u=[],o=0;o<t.length;o+=2)if("|"!==t[o]){var a=+("0x"+t[o]+t[o+1])-i;u.push(a)}else{var l=+("0x"+t.substring(o+1,o+1+4))-i;o+=3,u.push(l)}return String.fromCharCode.apply(String,u)}(u=(u=atob(u)).replace(/[\x41-\x5A]/g,""),n,r),u=JSON.parse(u)}}var vt=[{key:"alternate",def:!1},{key:"fill",def:1},{key:"iterations",def:0},{key:"direction",def:1},{key:"speed",def:1},{key:"fps",def:100}],yt=function(){function t(n,e){var i=this,u=arguments.length>2&&void 0!==arguments[2]?arguments[2]:null;r(this,t),this._id=0,this._running=!1,this._rollingBack=!1,this._animations=n,this._settings=e,(!u||u<"2022-05-02")&&delete this._settings.speed,vt.forEach((function(t){i._settings[t.key]=i._settings[t.key]||t.def})),this.duration=e.duration,this.offset=e.offset||0,this.rollbackStartOffset=0}return u(t,[{key:"alternate",get:function(){return this._settings.alternate}},{key:"fill",get:function(){return this._settings.fill}},{key:"iterations",get:function(){return this._settings.iterations}},{key:"direction",get:function(){return this._settings.direction}},{key:"speed",get:function(){return this._settings.speed}},{key:"fps",get:function(){return this._settings.fps}},{key:"maxFiniteDuration",get:function(){return this.iterations>0?this.iterations*this.duration:this.duration}},{key:"_apply",value:function(t){for(var n=arguments.length>1&&void 0!==arguments[1]?arguments[1]:{},e=this._animations,r=e.length,i=0,u=0;u<r;u++)n[u]?i++:(n[u]=e[u](t,1),n[u]&&i++);return i}},{key:"_rollback",value:function(t){var n=this,e=1/0,r=null;this.rollbackStartOffset=t,this._rollingBack=!0,this._running=!0;this._id=window.requestAnimationFrame((function i(u){if(n._rollingBack){null==r&&(r=u);var o=Math.round(t-(u-r)*n.speed);if(o>n.duration&&e!==1/0){var a=!!n.alternate&&o/n.duration%2>1,l=o%n.duration;o=(l+=a?n.duration:0)||n.duration}var s=(n.fps?1e3/n.fps:0)*n.speed,f=Math.max(0,o);f<=e-s&&(n.offset=f,e=f,n._apply(f));var c=n.iterations>0&&-1===n.fill&&o>=n.maxFiniteDuration;(o<=0||n.offset<o||c)&&n.stop(),n._id=window.requestAnimationFrame(i)}}))}},{key:"_start",value:function(){var t=this,n=arguments.length>0&&void 0!==arguments[0]?arguments[0]:0,e=-1/0,r=null,i={};this._running=!0;var u=function u(o){null==r&&(r=o);var a=Math.round((o-r)*t.speed+n),l=(t.fps?1e3/t.fps:0)*t.speed;if(a>=e+l&&!t._rollingBack&&(t.offset=a,e=a,t._apply(a,i)===t._animations.length))return void t.pause(!0);t._id=window.requestAnimationFrame(u)};this._id=window.requestAnimationFrame(u)}},{key:"_pause",value:function(){this._id&&window.cancelAnimationFrame(this._id),this._running=!1}},{key:"play",value:function(){if(!this._running)return this._rollingBack?this._rollback(this.offset):this._start(this.offset)}},{key:"stop",value:function(){this._pause(),this.offset=0,this.rollbackStartOffset=0,this._rollingBack=!1,this._apply(0)}},{key:"reachedToEnd",value:function(){return this.iterations>0&&this.offset>=this.iterations*this.duration}},{key:"restart",value:function(){var t=arguments.length>0&&void 0!==arguments[0]&&arguments[0];this.stop(t),this.play(t)}},{key:"pause",value:function(){this._pause()}},{key:"reverse",value:function(){this.direction=-this.direction}}],[{key:"build",value:function(t,n){delete t.animationSettings,t.options=ht(t.options,t.root,"5c7f360c"),t.animations.map((function(n){n.settings=ht(n.s,t.root,"5c7f360c"),delete n.s,t.animationSettings||(t.animationSettings=n.settings)}));var e=t.version;if(!(t=lt(t,n)))return null;var r=t.options||{},i=new this(t.animations,t.animationSettings,e);return{el:t.svg,options:r,player:i}}},{key:"push",value:function(t){return this.build(t)}},{key:"init",value:function(){var t=this,n=window.__SVGATOR_PLAYER__&&window.__SVGATOR_PLAYER__["5c7f360c"];Array.isArray(n)&&n.splice(0).forEach((function(n){return t.build(n)}))}}]),t}();function gt(t){return d(t)+""}function pt(t){var n=arguments.length>1&&void 0!==arguments[1]?arguments[1]:" ";return t&&t.length?t.map(gt).join(n):""}function dt(t){return t?null==t.a||t.a>=1?function(t){if(!t)return"transparent";var n=function(t){return parseInt(t).toString(16).padStart(2,"0")};return function(t){for(var n=[],e="#"===t[0]?n.push("#"):0;e<t.length;e+=2){if(t[e]!==t[e+1])return t;n.push(t[e])}return n.join("")}("#"+n(t.r)+n(t.g)+n(t.b)+(null==t.a||t.a>=1?"":n(255*t.a)))}(t):"rgba("+t.r+","+t.g+","+t.b+","+t.a+")":"transparent"}function mt(t){return t?"url(#"+t+")":"none"}!function(){for(var t=0,n=["ms","moz","webkit","o"],e=0;e<n.length&&!window.requestAnimationFrame;++e)window.requestAnimationFrame=window[n[e]+"RequestAnimationFrame"],window.cancelAnimationFrame=window[n[e]+"CancelAnimationFrame"]||window[n[e]+"CancelRequestAnimationFrame"];window.requestAnimationFrame||(window.requestAnimationFrame=function(n){var e=Date.now(),r=Math.max(0,16-(e-t)),i=window.setTimeout((function(){n(e+r)}),r);return t=e+r,i},window.cancelAnimationFrame=window.clearTimeout)}();var bt={f:null,i:function(t,n,e){return 0===t?n:1===t?e:{x:L(t,n.x,e.x),y:L(t,n.y,e.y)}},u:function(t,n){return function(e){var r=n(e);t.setAttribute("rx",gt(r.x)),t.setAttribute("ry",gt(r.y))}}},wt={f:null,i:function(t,n,e){return 0===t?n:1===t?e:{width:L(t,n.width,e.width),height:L(t,n.height,e.height)}},u:function(t,n){return function(e){var r=n(e);t.setAttribute("width",gt(r.width)),t.setAttribute("height",gt(r.height))}}};Object.freeze({M:2,L:2,Z:0,H:1,V:1,C:6,Q:4,T:2,S:4,A:7});var xt={},_t=null;function At(t){var n=function(){if(_t)return _t;if("object"!==("undefined"==typeof document?"undefined":e(document))||!document.createElementNS)return{};var t=document.createElementNS("http://www.w3.org/2000/svg","svg");return t&&t.style?(t.style.position="absolute",t.style.opacity="0.01",t.style.zIndex="-9999",t.style.left="-9999px",t.style.width="1px",t.style.height="1px",_t={svg:t}):{}}().svg;if(!n)return function(t){return null};var r=document.createElementNS(n.namespaceURI,"path");r.setAttributeNS(null,"d",t),r.setAttributeNS(null,"fill","none"),r.setAttributeNS(null,"stroke","none"),n.appendChild(r);var i=r.getTotalLength();return function(t){var n=r.getPointAtLength(i*t);return{x:n.x,y:n.y}}}function kt(t){return xt[t]?xt[t]:xt[t]=At(t)}function St(t,n,e,r){if(!t||!r)return!1;var i=["M",t.x,t.y];if(n&&e&&(i.push("C"),i.push(n.x),i.push(n.y),i.push(e.x),i.push(e.y)),n?!e:e){var u=n||e;i.push("Q"),i.push(u.x),i.push(u.y)}return n||e||i.push("L"),i.push(r.x),i.push(r.y),i.join(" ")}function Ot(t,n,e,r){var i=arguments.length>4&&void 0!==arguments[4]?arguments[4]:1,u=St(t,n,e,r),o=kt(u);try{return o(i)}catch(t){return null}}function jt(t,n,e){return t+(n-t)*e}function Mt(t,n,e){var r=arguments.length>3&&void 0!==arguments[3]&&arguments[3],i={x:jt(t.x,n.x,e),y:jt(t.y,n.y,e)};return r&&(i.a=Et(t,n)),i}function Et(t,n){return Math.atan2(n.y-t.y,n.x-t.x)}function Pt(t,n,e,r){var i=1-r;return i*i*t+2*i*r*n+r*r*e}function It(t,n,e,r){return 2*(1-r)*(n-t)+2*r*(e-n)}function Rt(t,n,e,r){var i=arguments.length>4&&void 0!==arguments[4]&&arguments[4],u=Ot(t,n,null,e,r);return u||(u={x:Pt(t.x,n.x,e.x,r),y:Pt(t.y,n.y,e.y,r)}),i&&(u.a=Ft(t,n,e,r)),u}function Ft(t,n,e,r){return Math.atan2(It(t.y,n.y,e.y,r),It(t.x,n.x,e.x,r))}function Nt(t,n,e,r,i){var u=i*i;return i*u*(r-t+3*(n-e))+3*u*(t+e-2*n)+3*i*(n-t)+t}function Tt(t,n,e,r,i){var u=1-i;return 3*(u*u*(n-t)+2*u*i*(e-n)+i*i*(r-e))}function qt(t,n,e,r,i){var u=arguments.length>5&&void 0!==arguments[5]&&arguments[5],o=Ot(t,n,e,r,i);return o||(o={x:Nt(t.x,n.x,e.x,r.x,i),y:Nt(t.y,n.y,e.y,r.y,i)}),u&&(o.a=Bt(t,n,e,r,i)),o}function Bt(t,n,e,r,i){return Math.atan2(Tt(t.y,n.y,e.y,r.y,i),Tt(t.x,n.x,e.x,r.x,i))}function Dt(t,n,e){var r=arguments.length>3&&void 0!==arguments[3]&&arguments[3];if(Ct(n)){if(Vt(e))return Rt(n,e.start,e,t,r)}else if(Ct(e)){if(Gt(n))return Rt(n,n.end,e,t,r)}else{if(Gt(n))return Vt(e)?qt(n,n.end,e.start,e,t,r):Rt(n,n.end,e,t,r);if(Vt(e))return Rt(n,e.start,e,t,r)}return Mt(n,e,t,r)}function Lt(t,n,e){var r=Dt(t,n,e,!0);return r.a=x(function(t){return arguments.length>1&&void 0!==arguments[1]&&arguments[1]?t+Math.PI:t}(r.a)),r}function Ct(t){return!t.type||"corner"===t.type}function Vt(t){return null!=t.start&&!Ct(t)}function Gt(t){return null!=t.end&&!Ct(t)}var zt=new T;var Yt={f:gt,i:D},$t={f:gt,i:C};function Ut(t,n,e){return t.map((function(t){return function(t,n,e){var r=t.v;if(!r||"g"!==r.t||r.s||!r.v||!r.r)return t;var i=e.getElementById(r.r),u=i&&i.querySelectorAll("stop")||[];return r.s=r.v.map((function(t,n){var e=u[n]&&u[n].getAttribute("offset");return{c:t,o:e=d(parseInt(e)/100)}})),delete r.v,t}(t,0,e)}))}var Qt={gt:"gradientTransform",c:{x:"cx",y:"cy"},rd:"r",f:{x:"x1",y:"y1"},to:{x:"x2",y:"y2"}};function Ht(t,n,r,i,u,o,a,l){return Ut(t,0,l),n=function(t,n,e){for(var r,i,u,o=t.length-1,a={},l=0;l<=o;l++)(r=t[l]).e&&(r.e=n(r.e)),r.v&&"g"===(i=r.v).t&&i.r&&(u=e.getElementById(i.r))&&(a[i.r]={e:u,s:u.querySelectorAll("stop")});return a}(t,i,l),function(i){var u=r(i,t,Jt);if(!u)return"none";if("c"===u.t)return dt(u.v);if("g"===u.t){if(!n[u.r])return mt(u.r);var o=n[u.r];return function(t,n){for(var e=t.s,r=e.length;r<n.length;r++){var i=e[e.length-1].cloneNode();i.id=Wt(i.id),t.e.appendChild(i),e=t.s=t.e.querySelectorAll("stop")}for(var u=0,o=e.length,a=n.length-1;u<o;u++)e[u].setAttribute("stop-color",dt(n[Math.min(u,a)].c)),e[u].setAttribute("offset",n[Math.min(u,a)].o)}(o,u.s),Object.keys(Qt).forEach((function(t){if(void 0!==u[t])if("object"!==e(Qt[t])){var n,r="gt"===t?(n=u[t],Array.isArray(n)?"matrix("+n.join(" ")+")":""):u[t],i=Qt[t];o.e.setAttribute(i,r)}else Object.keys(Qt[t]).forEach((function(n){if(void 0!==u[t][n]){var e=u[t][n],r=Qt[t][n];o.e.setAttribute(r,e)}}))})),mt(u.r)}return"none"}}function Jt(t,e,r){if(0===t)return e;if(1===t)return r;if(e&&r){var i=e.t;if(i===r.t)switch(e.t){case"c":return{t:i,v:z(t,e.v,r.v)};case"g":if(e.r===r.r){var u={t:i,s:Zt(t,e.s,r.s),r:e.r};return e.gt&&r.gt&&(u.gt=function(t,n,e){var r=n.length;if(r!==e.length)return B(t,n,e);for(var i=new Array(r),u=0;u<r;u++)i[u]=D(t,n[u],e[u]);return i}(t,e.gt,r.gt)),e.c?(u.c=V(t,e.c,r.c),u.rd=L(t,e.rd,r.rd)):e.f&&(u.f=V(t,e.f,r.f),u.to=V(t,e.to,r.to)),u}}if("c"===e.t&&"g"===r.t||"c"===r.t&&"g"===e.t){var o="c"===e.t?e:r,a="g"===e.t?n({},e):n({},r),l=a.s.map((function(t){return{c:o.v,o:t.o}}));return a.s="c"===e.t?Zt(t,l,a.s):Zt(t,a.s,l),a}}return B(t,e,r)}function Zt(t,n,e){if(n.length===e.length)return n.map((function(n,r){return Kt(t,n,e[r])}));for(var r=Math.max(n.length,e.length),i=[],u=0;u<r;u++){var o=Kt(t,n[Math.min(u,n.length-1)],e[Math.min(u,e.length-1)]);i.push(o)}return i}function Kt(t,n,e){return{o:C(t,n.o,e.o||0),c:z(t,n.c,e.c||{})}}function Wt(t){return t.replace(/-fill-([0-9]+)$/,(function(t,n){return"-fill-"+(+n+1)}))}var Xt={fill:Ht,"fill-opacity":$t,stroke:Ht,"stroke-opacity":$t,"stroke-width":Yt,"stroke-dashoffset":{f:gt,i:D},"stroke-dasharray":{f:function(t){var n=arguments.length>1&&void 0!==arguments[1]?arguments[1]:" ";return t&&t.length>0&&(t=t.map((function(t){return d(t,4)}))),pt(t,n)},i:function(t,n,e){var r,i,u,o=n.length,a=e.length;if(o!==a)if(0===o)n=Y(o=a,0);else if(0===a)a=o,e=Y(o,0);else{var l=(u=(r=o)*(i=a)/function(t,n){for(var e;n;)e=n,n=t%n,t=e;return t||1}(r,i))<0?-u:u;n=$(n,Math.floor(l/o)),e=$(e,Math.floor(l/a)),o=a=l}for(var s=[],f=0;f<o;f++)s.push(d(L(t,n[f],e[f])));return s}},opacity:$t,transform:function(t,n,r,i){if(!(t=function(t,n){if(!t||"object"!==e(t))return null;var r=!1;for(var i in t)t.hasOwnProperty(i)&&(t[i]&&t[i].length?(t[i].forEach((function(t){t.e&&(t.e=n(t.e))})),r=!0):delete t[i]);return r?t:null}(t,i)))return null;var u=function(e,i,u){var o=arguments.length>3&&void 0!==arguments[3]?arguments[3]:null;return t[e]?r(i,t[e],u):n&&n[e]?n[e]:o};return n&&n.a&&t.o?function(n){var e=r(n,t.o,Lt);return zt.recomposeSelf(e,u("r",n,D,0)+e.a,u("k",n,V),u("s",n,V),u("t",n,V)).toString()}:function(t){return zt.recomposeSelf(u("o",t,Dt,null),u("r",t,D,0),u("k",t,V),u("s",t,V),u("t",t,V)).toString()}},r:Yt,"#size":wt,"#radius":bt,_:function(t,n){if(Array.isArray(t))for(var e=0;e<t.length;e++)this[t[e]]=n;else this[t]=n}},tn=function(t){!function(t,n){if("function"!=typeof n&&null!==n)throw new TypeError("Super expression must either be null or a function");t.prototype=Object.create(n&&n.prototype,{constructor:{value:t,writable:!0,configurable:!0}}),n&&l(t,n)}(o,t);var n,e,i=(n=o,e=s(),function(){var t,r=a(n);if(e){var i=a(this).constructor;t=Reflect.construct(r,arguments,i)}else t=r.apply(this,arguments);return c(this,t)});function o(){return r(this,o),i.apply(this,arguments)}return u(o,null,[{key:"build",value:function(t){var n=h(a(o),"build",this).call(this,t,Xt);if(!n)return null;n.el,n.options,function(t,n,e){t.play()}(n.player)}}]),o}(yt);return tn.init(),tn}));
(function(s,i,o,w,d,a,b){w[o]=w[o]||{};w[o][s]=w[o][s]||[];w[o][s].push(i);})('5c7f360c',{"root":"eygzVALBON41","version":"2022-05-04","animations":[{"elements":{"eygzVALBON45":{"transform":{"data":{"t":{"x":-613.970032,"y":-581.217987}},"keys":{"o":[{"t":0,"v":{"x":531.770032,"y":591.139987,"type":"corner"}},{"t":3000,"v":{"x":916.901619,"y":591.139987,"type":"corner"}}]}}},"eygzVALBON46":{"transform":{"data":{"t":{"x":-505.947998,"y":-569.625}},"keys":{"o":[{"t":0,"v":{"x":376.509998,"y":576.45,"type":"corner"}},{"t":3000,"v":{"x":536.299143,"y":576.45,"type":"corner"}}]}}},"eygzVALBON47":{"transform":{"data":{"t":{"x":-930.604919,"y":-588.688995}},"keys":{"o":[{"t":0,"v":{"x":930.604919,"y":588.688995,"type":"corner"}},{"t":3000,"v":{"x":380.701889,"y":588.688998,"type":"corner"}}]}}},"eygzVALBON49":{"transform":{"data":{"o":{"x":532.207001,"y":843.497986,"type":"corner"},"t":{"x":-532.207001,"y":-843.497986}},"keys":{"s":[{"t":0,"v":{"x":1,"y":1}},{"t":200,"v":{"x":1,"y":1.092921}},{"t":500,"v":{"x":1,"y":0.95354}},{"t":800,"v":{"x":1,"y":1.019966}},{"t":1100,"v":{"x":1,"y":0.95354}},{"t":1500,"v":{"x":1,"y":1.092921}},{"t":1900,"v":{"x":1,"y":1.019966}},{"t":2100,"v":{"x":1,"y":1.092921}},{"t":2300,"v":{"x":1,"y":1.011001}},{"t":2600,"v":{"x":1,"y":1.092921}},{"t":3000,"v":{"x":1,"y":0.90342}}]}}},"eygzVALBON410":{"transform":{"data":{"t":{"x":-597.342987,"y":-830.557007}},"keys":{"o":[{"t":0,"v":{"x":597.342987,"y":830.557007,"type":"corner"}},{"t":200,"v":{"x":600.958987,"y":823.668007,"type":"corner"}},{"t":500,"v":{"x":600.958987,"y":833.869119,"type":"corner"}},{"t":800,"v":{"x":608.603816,"y":823.668007,"type":"corner"}},{"t":1100,"v":{"x":608.603816,"y":839.415007,"type":"corner"}},{"t":1500,"v":{"x":616.606987,"y":819.500007,"type":"corner"}},{"t":1900,"v":{"x":616.606987,"y":833.10149,"type":"corner"}},{"t":2100,"v":{"x":608.603816,"y":820.689007,"type":"corner"}},{"t":2300,"v":{"x":609.210987,"y":827.557007,"type":"corner"}},{"t":2600,"v":{"x":609.210989,"y":820.689007,"type":"corner"}},{"t":3000,"v":{"x":597.879002,"y":839.415007,"type":"corner"}}]}}},"eygzVALBON414":{"transform":{"data":{"t":{"x":-264.383995,"y":-339.079995}},"keys":{"o":[{"t":0,"v":{"x":264.383995,"y":339.08,"type":"corner"}},{"t":300,"v":{"x":264.675995,"y":339.08,"type":"corner"}}],"r":[{"t":0,"v":0},{"t":300,"v":11.269609},{"t":500,"v":15.206064},{"t":600,"v":10.925972},{"t":900,"v":1.291432},{"t":1300,"v":0},{"t":1600,"v":11.269609},{"t":1800,"v":15.206064},{"t":1900,"v":10.925972},{"t":2200,"v":1.291432},{"t":2600,"v":0},{"t":2900,"v":11.269609}]}}},"eygzVALBON415":{"transform":{"data":{"o":{"x":264.092005,"y":339.08,"type":"corner"},"t":{"x":-264.092003,"y":-339.08}},"keys":{"r":[{"t":0,"v":0},{"t":600,"v":12.062596},{"t":900,"v":5.673352},{"t":1300,"v":0},{"t":1900,"v":12.062596},{"t":2200,"v":5.673352},{"t":2600,"v":0}]}}},"eygzVALBON416":{"transform":{"data":{"t":{"x":-260.753812,"y":-335.359998}},"keys":{"o":[{"t":0,"v":{"x":260.753815,"y":335.36,"type":"corner"}},{"t":300,"v":{"x":260.753815,"y":334.353998,"type":"corner"}}],"r":[{"t":0,"v":0},{"t":300,"v":12.6686},{"t":700,"v":8.281013},{"t":900,"v":13.134743},{"t":1300,"v":0},{"t":1600,"v":12.6686},{"t":2000,"v":8.281013},{"t":2200,"v":13.134743},{"t":2600,"v":0},{"t":2900,"v":12.6686}]}}},"eygzVALBON417":{"transform":{"data":{"o":{"x":260.753815,"y":339.08,"type":"corner"},"t":{"x":-260.753815,"y":-339.08}},"keys":{"r":[{"t":0,"v":0},{"t":300,"v":9.184987},{"t":900,"v":-0.23155},{"t":1300,"v":0},{"t":1600,"v":9.184987},{"t":2200,"v":-0.23155},{"t":2600,"v":0},{"t":2900,"v":9.184987}]}}},"eygzVALBON418":{"transform":{"data":{"o":{"x":264.092005,"y":336.366,"type":"corner"},"t":{"x":-264.092005,"y":-336.365996}},"keys":{"r":[{"t":0,"v":0},{"t":300,"v":13.171822},{"t":700,"v":11.535894},{"t":900,"v":16.885212},{"t":1300,"v":0},{"t":1600,"v":13.171822},{"t":2000,"v":11.535894},{"t":2200,"v":16.885212},{"t":2600,"v":0},{"t":2900,"v":13.171822}]}}},"eygzVALBON422":{"transform":{"data":{"o":{"x":399.236,"y":596.562622,"type":"corner"},"t":{"x":-399.236,"y":-596.562622}},"keys":{"r":[{"t":0,"v":0},{"t":500,"v":12.065913},{"t":800,"v":5.388843},{"t":1000,"v":13.994467},{"t":1400,"v":0},{"t":1900,"v":12.065913},{"t":2200,"v":5.388843},{"t":2400,"v":13.994467},{"t":2800,"v":0},{"t":3300,"v":12.065913}]}}},"eygzVALBON423":{"transform":{"data":{"o":{"x":399.236,"y":596.562622,"type":"corner"},"t":{"x":-399.236,"y":-596.562622}},"keys":{"r":[{"t":0,"v":0},{"t":500,"v":8.978468},{"t":800,"v":16.249251},{"t":1000,"v":7.815009},{"t":1400,"v":0},{"t":1900,"v":8.978468},{"t":2200,"v":16.249251},{"t":2400,"v":7.815009},{"t":2800,"v":0},{"t":3300,"v":8.978468}]}}},"eygzVALBON424":{"transform":{"data":{"o":{"x":406.152802,"y":596.562622,"type":"corner"},"t":{"x":-406.152802,"y":-596.562622}},"keys":{"r":[{"t":0,"v":0},{"t":200,"v":-1.259476},{"t":500,"v":11.343693},{"t":800,"v":16.646933},{"t":1000,"v":25.429478},{"t":1400,"v":0},{"t":1600,"v":-1.259476},{"t":1900,"v":11.343693},{"t":2200,"v":16.646933},{"t":2400,"v":25.429478},{"t":2800,"v":0},{"t":3000,"v":-1.259476}]}}},"eygzVALBON425":{"transform":{"data":{"o":{"x":404.448002,"y":596.858,"type":"corner"},"t":{"x":-404.448002,"y":-596.858}},"keys":{"r":[{"t":0,"v":0},{"t":500,"v":11.129091},{"t":800,"v":16.786119},{"t":1000,"v":6.051534},{"t":1400,"v":0},{"t":1900,"v":11.129091},{"t":2200,"v":16.786119},{"t":2400,"v":6.051534},{"t":2800,"v":0},{"t":3300,"v":11.129091}]}}},"eygzVALBON426":{"transform":{"data":{"o":{"x":406.152802,"y":591.14,"type":"corner"},"t":{"x":-406.1528,"y":-591.139994}},"keys":{"r":[{"t":0,"v":0},{"t":500,"v":8.814013},{"t":800,"v":18.415743},{"t":1000,"v":12.895978},{"t":1400,"v":0},{"t":1900,"v":8.814013},{"t":2200,"v":18.415743},{"t":2400,"v":12.895978},{"t":2800,"v":0},{"t":3300,"v":8.814013}]}}},"eygzVALBON428":{"transform":{"data":{"o":{"x":772.861914,"y":432,"type":"corner"},"t":{"x":-772.945614,"y":-432}},"keys":{"r":[{"t":0,"v":0},{"t":500,"v":10.511178},{"t":800,"v":14.001035},{"t":1200,"v":1.336653},{"t":1600,"v":0},{"t":2100,"v":10.511178},{"t":2400,"v":14.001035},{"t":3000,"v":1.336653}]}}},"eygzVALBON429":{"transform":{"data":{"o":{"x":784.986,"y":432,"type":"corner"},"t":{"x":-784.985998,"y":-432}},"keys":{"r":[{"t":0,"v":0},{"t":500,"v":19.487787},{"t":800,"v":10.327777},{"t":1200,"v":17.454056},{"t":1600,"v":0},{"t":2100,"v":19.487787},{"t":2400,"v":10.327777},{"t":3000,"v":17.454056}]}}},"eygzVALBON430":{"transform":{"data":{"o":{"x":772.945618,"y":421.128996,"type":"corner"},"t":{"x":-772.945611,"y":-421.128996}},"keys":{"r":[{"t":0,"v":0},{"t":500,"v":11.201118},{"t":800,"v":0.350377},{"t":1200,"v":-17.808036},{"t":1600,"v":0},{"t":2100,"v":11.201118},{"t":2400,"v":0.350377},{"t":3000,"v":-17.808036}]}}},"eygzVALBON431":{"transform":{"data":{"o":{"x":772.945618,"y":421.128996,"type":"corner"},"t":{"x":-772.945614,"y":-421.128996}},"keys":{"r":[{"t":0,"v":0},{"t":500,"v":7.322314},{"t":800,"v":2.345031},{"t":1200,"v":-10.921865},{"t":1600,"v":0},{"t":2100,"v":7.322314},{"t":2400,"v":2.345031},{"t":3000,"v":-10.921865}]}}},"eygzVALBON432":{"transform":{"data":{"o":{"x":777.627018,"y":427.280909,"type":"corner"},"t":{"x":-777.627017,"y":-427.280909}},"keys":{"r":[{"t":0,"v":0},{"t":500,"v":12.765193},{"t":800,"v":5.35598},{"t":1200,"v":15.986004},{"t":1600,"v":0},{"t":2100,"v":12.765193},{"t":2600,"v":5.35598},{"t":3000,"v":15.986004}]}}},"eygzVALBON433":{"transform":{"data":{"o":{"x":777.627014,"y":427.280909,"type":"corner"},"t":{"x":-777.627014,"y":-427.280908}},"keys":{"r":[{"t":0,"v":0},{"t":500,"v":10.709522},{"t":800,"v":5.56091},{"t":1200,"v":20.385797},{"t":1600,"v":0},{"t":2100,"v":10.709522},{"t":2400,"v":5.56091},{"t":3000,"v":20.385797}]}}}},"s":"MPDA1ZDhiMzI3NDg1ODFJSNzE4NDc5N2Y3ZTMPyNGE0MzQwNDA0MDNjRWUgzMjc0Nzk4Mjc1NTzM4NDc5N2Y3ZTMyNGDE0MTNjMzI3OTg0NzUL4MjcxODQ3OTdmN2U4KMzMyNGE0MDNjMzI3NXjc5N2M3YzMyNGE0MTBNjMzI3MTdjODQ3NTgPyN2VVNzE4NDc1MzI0KYTc2NzE3YzgzNzVKMX2MzMjgzVjgwNzU3NTGc0MzI0YTQxM2MzMjcB2ODBWODMzMjRhNDFWNNDA0MDhk"}],"options":"MQDAxMDg4MmY4MDgxNmYVKN2Y4MTJmNDcyZjcG5N2M2ZTcxMmY4YQ|"},'__SVGATOR_PLAYER__',window,document)
]]></script>
</svg>
